<?xml version="1.0" encoding="utf-8"?>
<!-- Generator: Adobe Illustrator 16.0.0, SVG Export Plug-In . SVG Version: 6.00 Build 0)  -->
<!DOCTYPE svg PUBLIC "-//W3C//DTD SVG 1.1//EN" "http://www.w3.org/Graphics/SVG/1.1/DTD/svg11.dtd">
<svg version="1.1" xmlns="http://www.w3.org/2000/svg" xmlns:xlink="http://www.w3.org/1999/xlink" x="0px" y="0px"
	 width="1022.949px" height="212.974px" viewBox="0 0 1022.949 212.974" enable-background="new 0 0 1022.949 212.974"
	 xml:space="preserve">
<g id="Layer_1">
	<rect x="20.549" y="46.899" fill="none" width="132.894" height="182.38"/>
	<text transform="matrix(1 0 0 1 20.5488 180.7148)" fill="#403333" font-family="'ComicSansMS'" font-size="172">i</text>
	<g>
		<path fill="#403333" d="M440.917,72.788c-3.584,0-6.271-2.1-8.063-6.299c-1.568-3.583-3.023-5.766-4.367-6.551
			c-1.176-0.615-4.088-0.924-8.734-0.924c-8.119,0-17.133,6.215-27.043,18.645c-13.438,16.686-20.156,32.502-20.156,47.451
			c0,7.223,2.322,13.438,6.971,18.645c4.758,5.375,10.498,8.063,17.217,8.063c5.766,0,11.561-1.482,17.385-4.451
			c3.246-1.68,8.23-4.982,14.949-9.91c3.191-2.352,5.598-3.527,7.223-3.527c2.406,0,4.422,0.911,6.047,2.729
			c1.623,1.82,2.436,3.851,2.436,6.089c0,2.52-1.064,4.732-3.191,6.635c-14.781,13.102-29.73,19.652-44.848,19.652
			c-11.59,0-21.389-4.451-29.395-13.354c-7.727-8.621-11.59-18.813-11.59-30.57c0-18.98,7.949-38.436,23.852-58.369
			c13.27-16.629,26.65-24.943,40.145-24.943c2.742,0,5.207,0.126,7.391,0.378s4.115,0.659,5.795,1.218
			c1.959-2.855,4.506-4.283,7.643-4.283c3.863,0,6.299,2.548,7.307,7.643c0.895,4.535,1.344,10.107,1.344,16.713
			c0,2.296-0.617,4.312-1.848,6.047C445.872,71.696,443.716,72.788,440.917,72.788z"/>
		<path fill="#403333" d="M529.101,172.562c-1.064,0-2.996-1.232-5.795-3.695c-2.52-2.295-4.396-4.338-5.627-6.131
			c-5.375,2.912-10.107,5.108-14.193,6.593c-4.088,1.482-7.504,2.226-10.246,2.226c-13.102,0-22.648-3.695-28.639-11.086
			c-5.656-6.941-8.482-17.58-8.482-31.914c0-13.549,4.661-25.139,13.983-34.77c9.322-9.629,20.45-14.445,33.384-14.445
			c4.871,0,10.33,1.26,16.377,3.779c7.613,3.136,11.422,6.916,11.422,11.338c0,1.512-0.561,2.855-1.68,4.031
			c-0.561,2.128-0.995,5.627-1.302,10.498c-0.309,4.871-0.491,11.115-0.546,18.729c-0.057,6.943,0.42,12.43,1.428,16.461
			c0.559,2.465,2.322,7.391,5.291,14.781c0.391,1.008,1.035,2.492,1.932,4.451l0.504,1.428c0,2.238-0.785,4.086-2.352,5.543
			C532.991,171.833,531.171,172.562,529.101,172.562z M511.632,114.192c0-2.407,0.153-5.024,0.462-7.853
			c0.307-2.827,0.769-5.837,1.386-9.028c-2.072-1.063-3.851-1.848-5.333-2.352c-1.484-0.504-2.675-0.756-3.569-0.756
			c-8.68,0-16.167,3.542-22.466,10.624c-6.299,7.084-9.448,15.243-9.448,24.481c0,9.184,1.623,16.07,4.871,20.66
			c3.246,4.592,8.117,6.887,14.613,6.887c5.375,0,9.938-0.979,13.689-2.939c2.016-1.063,4.842-3.191,8.482-6.383
			C512.526,132.698,511.632,121.583,511.632,114.192z"/>
		<path fill="#403333" d="M615.94,172.981c-4.816,0-7.531-2.633-8.146-7.895l-2.352-18.393c-0.785-6.551-1.176-12.682-1.176-18.393
			c0-1.566,0.097-4.227,0.294-7.979c0.195-3.75,0.294-6.41,0.294-7.979c0-12.094-2.24-18.141-6.719-18.141
			c-6.271,0-12.262,3.724-17.973,11.17c-5.152,6.775-9.184,15.342-12.094,25.699c-0.113,2.184-0.365,4.928-0.756,8.23
			c-0.336,2.801-0.504,5.516-0.504,8.146c0,1.68,0.168,4.199,0.504,7.559s0.504,5.879,0.504,7.559c0,2.52-0.771,4.563-2.31,6.131
			c-1.541,1.566-3.515,2.352-5.921,2.352c-2.465,0-4.451-0.785-5.963-2.352c-1.512-1.568-2.268-3.611-2.268-6.131
			c0-1.68-0.183-4.199-0.546-7.559c-0.365-3.359-0.546-5.879-0.546-7.559c0-5.766,0.405-13.759,1.218-23.978
			c0.811-10.217,1.218-18.21,1.218-23.978c0-1.791-0.099-4.451-0.294-7.979c-0.197-3.527-0.294-6.186-0.294-7.979
			c0-2.407,0.798-4.38,2.394-5.921c1.596-1.539,3.569-2.31,5.921-2.31c5.15,0,7.979,3.64,8.482,10.918l0.252,9.826
			c9.406-12.541,19.064-18.813,28.975-18.813c8.957,0,15.201,3.947,18.729,11.842c2.406,5.264,3.723,13.046,3.947,23.348v8.482
			l-0.084,7.811c0,4.648,0.601,10.653,1.806,18.015c1.203,7.363,1.806,13.341,1.806,17.931c0,2.463-0.798,4.464-2.394,6.005
			C620.35,172.211,618.347,172.981,615.94,172.981z"/>
		<path fill="#403333" d="M790.46,116.208c-3.473,17.189-10.765,30.921-21.878,41.194c-11.115,10.273-24.229,15.411-39.347,15.411
			c-13.773,0-24.104-3.851-30.99-11.548s-10.33-19.245-10.33-34.644c0-14.501,3.429-29.437,10.288-44.806
			c6.857-15.369,15.663-27.784,26.413-37.247c7.166-6.326,14.752-9.49,22.76-9.49c5.094,0,11.813,1.68,20.156,5.039
			c10.189,4.031,15.285,8.482,15.285,13.354c0,2.296-0.84,4.34-2.52,6.131c-1.68,1.792-3.695,2.688-6.047,2.688
			c-1.232,0-2.969-0.699-5.207-2.1c-8.566-5.207-15.789-7.811-21.668-7.811c-4.199,0-8.596,2.184-13.186,6.551
			c-2.297,2.184-5.6,6.16-9.91,11.926c-12.934,17.133-19.4,35.722-19.4,55.766c0,10.527,1.623,17.889,4.871,22.088
			c3.527,4.592,10.021,6.887,19.484,6.887c10.021,0,18.729-3.162,26.119-9.49c7.781-6.719,13.213-16.32,16.293-28.807
			c-15.51,0.785-28.807,3.779-39.893,8.986c-1.289,0.617-2.549,0.924-3.779,0.924c-2.465,0-4.508-0.951-6.131-2.855
			c-1.512-1.734-2.268-3.75-2.268-6.047c0-3.079,1.482-5.543,4.451-7.391c12.094-7.391,32.949-11.086,62.568-11.086
			c2.406,0,4.422,0.813,6.047,2.436c1.623,1.625,2.436,3.668,2.436,6.131C795.079,112.037,793.538,114.641,790.46,116.208z"/>
		<path fill="#403333" d="M865.542,172.142c-15.789,0-29.172-4.732-40.145-14.193c-11.646-10.078-17.469-23.066-17.469-38.969
			c0-19.372,5.738-36.98,17.217-52.826c12.82-17.58,28.807-26.371,47.955-26.371c18.42,0,32.109,4.144,41.068,12.43
			c9.35,8.623,14.025,22.229,14.025,40.816c0,19.373-5.264,36.842-15.789,52.406C900.312,163.239,884.69,172.142,865.542,172.142z
			 M873.101,56.999c-13.719,0-25.336,6.832-34.854,20.492c-8.791,12.542-13.186,26.371-13.186,41.488
			c0,10.807,4.002,19.598,12.01,26.371c7.67,6.383,17.16,9.574,28.471,9.574c13.605,0,24.83-6.857,33.678-20.576
			c7.895-12.262,11.842-26.035,11.842-41.32c0-13.381-2.996-22.787-8.986-28.219C896.364,59.603,886.706,56.999,873.101,56.999z"/>
	</g>
</g>
<g id="Layer_1_copy">
	<rect x="23.549" y="37.9" fill="none" width="132.894" height="182.38"/>
	<text transform="matrix(1 0 0 1 23.5488 171.7158)" fill="#0068FF" font-family="'ComicSansMS'" font-size="172">i</text>
	<g>
		<g>
			<path fill="#0068FF" d="M443.167,66.688c-3.584,0-6.271-2.1-8.063-6.299c-1.568-3.583-3.023-5.766-4.367-6.551
				c-1.176-0.615-4.088-0.924-8.734-0.924c-8.119,0-17.133,6.215-27.043,18.645c-13.438,16.686-20.156,32.502-20.156,47.451
				c0,7.223,2.322,13.438,6.971,18.645c4.758,5.375,10.498,8.063,17.217,8.063c5.766,0,11.561-1.482,17.385-4.451
				c3.246-1.68,8.23-4.982,14.949-9.91c3.191-2.352,5.598-3.527,7.223-3.527c2.406,0,4.422,0.911,6.047,2.729
				c1.623,1.82,2.436,3.851,2.436,6.089c0,2.52-1.064,4.732-3.191,6.635c-14.781,13.102-29.73,19.652-44.848,19.652
				c-11.59,0-21.389-4.451-29.395-13.354c-7.727-8.621-11.59-18.813-11.59-30.57c0-18.98,7.949-38.436,23.852-58.369
				c13.27-16.629,26.65-24.943,40.145-24.943c2.742,0,5.207,0.126,7.391,0.378s4.115,0.659,5.795,1.218
				c1.959-2.855,4.506-4.283,7.643-4.283c3.863,0,6.299,2.548,7.307,7.643c0.895,4.535,1.344,10.107,1.344,16.713
				c0,2.296-0.617,4.312-1.848,6.047C448.122,65.597,445.966,66.688,443.167,66.688z"/>
			<path fill="#0068FF" d="M531.351,166.462c-1.064,0-2.996-1.232-5.795-3.695c-2.52-2.295-4.396-4.338-5.627-6.131
				c-5.375,2.912-10.107,5.108-14.193,6.593c-4.088,1.482-7.504,2.226-10.246,2.226c-13.102,0-22.648-3.695-28.639-11.086
				c-5.656-6.941-8.482-17.58-8.482-31.914c0-13.549,4.661-25.139,13.983-34.77c9.322-9.629,20.45-14.445,33.384-14.445
				c4.871,0,10.33,1.26,16.377,3.779c7.613,3.136,11.422,6.916,11.422,11.338c0,1.512-0.561,2.855-1.68,4.031
				c-0.561,2.128-0.995,5.627-1.302,10.498c-0.309,4.871-0.491,11.115-0.546,18.729c-0.057,6.943,0.42,12.43,1.428,16.461
				c0.559,2.465,2.322,7.391,5.291,14.781c0.391,1.008,1.035,2.492,1.932,4.451l0.504,1.428c0,2.238-0.785,4.086-2.352,5.543
				C535.241,165.733,533.421,166.462,531.351,166.462z M513.882,108.093c0-2.407,0.153-5.024,0.462-7.853
				c0.307-2.827,0.769-5.837,1.386-9.028c-2.072-1.063-3.851-1.848-5.333-2.352c-1.484-0.504-2.675-0.756-3.569-0.756
				c-8.68,0-16.167,3.542-22.466,10.624c-6.299,7.083-9.448,15.243-9.448,24.481c0,9.184,1.623,16.07,4.871,20.66
				c3.246,4.592,8.117,6.887,14.613,6.887c5.375,0,9.938-0.979,13.689-2.939c2.016-1.063,4.842-3.191,8.482-6.383
				C514.776,126.599,513.882,115.483,513.882,108.093z"/>
			<path fill="#0068FF" d="M618.19,166.882c-4.816,0-7.531-2.633-8.146-7.895l-2.352-18.393c-0.785-6.551-1.176-12.682-1.176-18.393
				c0-1.566,0.097-4.227,0.294-7.979c0.195-3.75,0.294-6.41,0.294-7.979c0-12.094-2.24-18.141-6.719-18.141
				c-6.271,0-12.262,3.724-17.973,11.17c-5.152,6.775-9.184,15.342-12.094,25.699c-0.113,2.184-0.365,4.928-0.756,8.23
				c-0.336,2.801-0.504,5.516-0.504,8.146c0,1.68,0.168,4.199,0.504,7.559s0.504,5.879,0.504,7.559c0,2.52-0.771,4.563-2.31,6.131
				c-1.541,1.566-3.515,2.352-5.921,2.352c-2.465,0-4.451-0.785-5.963-2.352c-1.512-1.568-2.268-3.611-2.268-6.131
				c0-1.68-0.183-4.199-0.546-7.559c-0.365-3.359-0.546-5.879-0.546-7.559c0-5.766,0.405-13.759,1.218-23.978
				c0.811-10.217,1.218-18.21,1.218-23.978c0-1.791-0.099-4.451-0.294-7.979c-0.197-3.527-0.294-6.186-0.294-7.979
				c0-2.407,0.798-4.38,2.394-5.921c1.596-1.539,3.569-2.31,5.921-2.31c5.15,0,7.979,3.64,8.482,10.918l0.252,9.826
				c9.406-12.541,19.064-18.813,28.975-18.813c8.957,0,15.201,3.947,18.729,11.842c2.406,5.264,3.723,13.046,3.947,23.348v8.482
				l-0.084,7.811c0,4.648,0.601,10.653,1.806,18.015c1.203,7.363,1.806,13.341,1.806,17.931c0,2.463-0.798,4.464-2.394,6.005
				C622.6,166.111,620.597,166.882,618.19,166.882z"/>
			<path fill="#0068FF" d="M792.71,110.108c-3.473,17.189-10.765,30.921-21.878,41.194c-11.115,10.273-24.229,15.411-39.347,15.411
				c-13.773,0-24.104-3.851-30.99-11.548s-10.33-19.245-10.33-34.644c0-14.501,3.429-29.437,10.288-44.806
				c6.857-15.369,15.663-27.784,26.413-37.247c7.166-6.326,14.752-9.49,22.76-9.49c5.094,0,11.813,1.68,20.156,5.039
				c10.189,4.031,15.285,8.482,15.285,13.354c0,2.296-0.84,4.34-2.52,6.131c-1.68,1.792-3.695,2.688-6.047,2.688
				c-1.232,0-2.969-0.699-5.207-2.1c-8.566-5.207-15.789-7.811-21.668-7.811c-4.199,0-8.596,2.184-13.186,6.551
				c-2.297,2.184-5.6,6.16-9.91,11.926c-12.934,17.133-19.4,35.722-19.4,55.766c0,10.527,1.623,17.889,4.871,22.088
				c3.527,4.592,10.021,6.887,19.484,6.887c10.021,0,18.729-3.162,26.119-9.49c7.781-6.719,13.213-16.32,16.293-28.807
				c-15.51,0.785-28.807,3.779-39.893,8.986c-1.289,0.617-2.549,0.924-3.779,0.924c-2.465,0-4.508-0.951-6.131-2.855
				c-1.512-1.734-2.268-3.75-2.268-6.047c0-3.079,1.482-5.543,4.451-7.391c12.094-7.391,32.949-11.086,62.568-11.086
				c2.406,0,4.422,0.813,6.047,2.436c1.623,1.625,2.436,3.668,2.436,6.131C797.329,105.938,795.788,108.541,792.71,110.108z"/>
			<path fill="#0068FF" d="M867.792,166.042c-15.789,0-29.172-4.732-40.145-14.193c-11.646-10.078-17.469-23.066-17.469-38.969
				c0-19.372,5.738-36.98,17.217-52.826c12.82-17.58,28.807-26.371,47.955-26.371c18.42,0,32.109,4.144,41.068,12.43
				c9.35,8.623,14.025,22.229,14.025,40.816c0,19.373-5.264,36.842-15.789,52.406C902.562,157.14,886.94,166.042,867.792,166.042z
				 M875.351,50.899c-13.719,0-25.336,6.832-34.854,20.492c-8.791,12.542-13.186,26.371-13.186,41.488
				c0,10.807,4.002,19.598,12.01,26.371c7.67,6.383,17.16,9.574,28.471,9.574c13.605,0,24.83-6.857,33.678-20.576
				c7.895-12.262,11.842-26.035,11.842-41.32c0-13.381-2.996-22.787-8.986-28.219C898.614,53.503,888.956,50.899,875.351,50.899z"/>
		</g>
	</g>
</g>
<g id="Layer_2" display="none">
	<g display="inline">
		<path fill-rule="evenodd" clip-rule="evenodd" fill="none" d="M93.896,195.976c0-63.659,0.035-127.317-0.097-190.976
			c-0.007-3.424,0.672-4.106,4.097-4.097C151.221,1.042,204.548,1,257.875,1c-2.18,1.292-4.361,2.582-6.539,3.878
			c-8.428,5.019-10.21,14.417-7.883,20.921c3.305,9.233,11.803,14.599,20.304,14.027c7.109-0.479,12.917-4.701,15.646-11.217
			c2.798-6.682,2.515-13.604-2.242-19.988c-2.982-4.004-7.239-5.519-11.287-7.621c30.329,0,60.659,0.035,90.988-0.064
			c2.5-0.009,3.065,0.565,3.063,3.064c-0.078,69.324-0.078,138.65,0,207.974c0.003,2.499-0.563,3.064-3.063,3.062
			c-86.655-0.075-173.311-0.075-259.967,0c-2.498,0.002-3.321-0.543-3.052-3.067c0.246-2.307,0.052-4.661,0.052-6.993
			c0.688,0.859,1.309,1.783,2.075,2.566c2.462,2.519,7.535,3.396,11.022,1.806c3.73-1.7,5.922-4.448,5.937-8.802
			c0.014-4.333-2.048-7.145-5.825-8.861C102.77,189.714,97.436,191.479,93.896,195.976z M305.499,96.461
			c0.021-0.157,0.042-0.315,0.063-0.474c1.167,0,2.333,0.014,3.499-0.002c5.245-0.073,7.928-2.242,8.567-6.912
			c0.571-4.17-1.577-7.798-5.987-8.979c-3.909-1.047-7.975-1.656-12.011-2.058c-8.674-0.864-16.854-2.906-22.858-9.727
			c-4.765-5.413-9.335-11.023-13.65-16.8c-6.069-8.127-14.146-11.365-23.681-9.334c-8.282,1.765-16.624,3.245-24.948,4.803
			c-2.729,0.511-5.521,0.719-8.224,1.33c-14.143,3.198-14.663,8.829-16.362,19.7c-2.4,15.363-7.225,29.733-16.798,42.21
			c-3.643,4.747-4.781,4.842-9.552,0.915c-4.772-3.93-10.2-6.265-16.287-7.125c-8.5-1.201-12.47,1.645-14.523,10.314
			c-0.374,1.58-0.871,3.133-1.36,4.684c-5.821,18.452-11.833,36.848-17.387,55.381c-2.1,7.005-2.484,14.144,2.366,20.69
			c1.448,1.954,2.202,4.74,2.411,7.219c0.313,3.732,2.059,5.829,5.539,6.381c12.719,2.018,13.39,3.878,16.697-9.523
			c3.74-15.155,8.109-30.107,14.449-44.486c8.063-18.289,17.729-35.637,28.723-52.276c1.873-2.835,4.586-4.968,8.321-4.369
			c6.295,1.01,9.644-2.304,11.346-10.038c1.188-5.4,1.741-10.967,3.269-16.26c1.596-5.534,8.167-8.161,12.65-5.794
			c2.039,1.076,2.494,2.172,1.481,4.343c-2.271,4.87-4.378,9.823-6.365,14.816c-3.8,9.548-8.479,18.835-7.163,29.729
			c0.303,2.508-0.976,5.476-2.235,7.855c-5.192,9.808-10.65,19.475-16.023,29.186c-8.297,14.995-16.58,29.998-24.919,44.97
			c-3.198,5.738-1.631,11.421,4.141,14.487c5.897,3.133,10.383,2.1,14.107-4.26c9.811-16.747,19.324-33.671,28.9-50.555
			c4.504-7.941,8.833-15.981,13.346-23.918c1.301-2.288,2.782-3.443,5.287-0.763c5.162,5.523,11.271,10.269,15.831,16.222
			c5.52,7.207,10.482,15.013,14.523,23.139c5.355,10.768,9.451,22.154,14.397,33.136c1.141,2.531,3.306,4.75,5.406,6.667
			c3.87,3.53,7.206,3.939,10.682,1.886c3.898-2.305,6.165-7.257,4.714-11.658c-1.93-5.849-4.179-11.608-6.586-17.282
			c-4.009-9.448-8.426-18.727-12.343-28.213c-3.414-8.269-7.826-15.769-14.034-22.276c-4.079-4.275-7.742-8.946-11.569-13.459
			c-5.021-5.922-4.779-12.448-1.865-19.082c2.626-5.977,5.512-11.841,8.369-17.713c2.638-5.424,3.817-5.535,7.809-0.88
			c0.521,0.607,0.801,1.417,1.306,2.042c3.037,3.752,6.457,7.384,11.294,8.256C287.279,94.229,296.413,95.212,305.499,96.461z
			 M344.104,56.373c-0.477,0.213-1.297,0.418-1.921,0.885c-5.585,4.172-11.178,8.336-16.677,12.62
			c-2.475,1.929-4.728,4.14-7.108,6.192c-0.987,0.852-1.98,1.074,0.098,2.307c3.514,2.084,6.482,5.068,9.849,7.435
			c0.719,0.506,2.453,0.416,3.214-0.118c8.327-5.848,16.556-11.834,24.805-17.793c2.163-1.563,1.815-2.754-0.448-3.948
			c-1.699-0.897-3.191-2.176-4.817-3.22C348.796,59.254,346.457,57.836,344.104,56.373z"/>
		<path fill-rule="evenodd" clip-rule="evenodd" fill="#F5FE00" d="M265.874,1c4.048,2.102,8.305,3.617,11.287,7.621
			c4.757,6.384,5.04,13.306,2.242,19.988c-2.729,6.517-8.537,10.739-15.646,11.217c-8.5,0.572-16.999-4.793-20.304-14.027
			c-2.328-6.504-0.545-15.902,7.883-20.921c2.178-1.297,4.359-2.586,6.539-3.878C260.541,1,263.208,1,265.874,1z"/>
		<path fill-rule="evenodd" clip-rule="evenodd" fill="#F5FE00" d="M93.896,195.976c3.54-4.496,8.875-6.262,13.209-4.292
			c3.777,1.717,5.839,4.528,5.825,8.861c-0.014,4.354-2.206,7.102-5.937,8.802c-3.488,1.59-8.56,0.713-11.022-1.806
			c-0.766-0.783-1.387-1.707-2.075-2.566C93.896,201.975,93.896,198.975,93.896,195.976z"/>
		<path fill-rule="evenodd" clip-rule="evenodd" fill="#F5FE00" d="M305.499,96.461c-9.086-1.25-18.22-2.232-27.238-3.858
			c-4.838-0.872-8.257-4.503-11.294-8.256c-0.505-0.624-0.786-1.434-1.306-2.042c-3.992-4.655-5.171-4.544-7.809,0.88
			c-2.857,5.872-5.743,11.737-8.369,17.713c-2.915,6.634-3.157,13.16,1.865,19.082c3.827,4.513,7.49,9.184,11.569,13.459
			c6.208,6.508,10.621,14.008,14.034,22.276c3.917,9.486,8.334,18.765,12.343,28.213c2.407,5.674,4.656,11.434,6.586,17.282
			c1.451,4.401-0.815,9.354-4.714,11.658c-3.476,2.054-6.812,1.645-10.682-1.886c-2.101-1.917-4.266-4.136-5.406-6.667
			c-4.946-10.981-9.042-22.368-14.397-33.136c-4.041-8.126-9.003-15.932-14.523-23.139c-4.56-5.953-10.669-10.698-15.831-16.222
			c-2.505-2.681-3.986-1.525-5.287,0.763c-4.513,7.937-8.842,15.977-13.346,23.918c-9.576,16.884-19.089,33.808-28.9,50.555
			c-3.724,6.359-8.209,7.393-14.107,4.26c-5.772-3.066-7.339-8.749-4.141-14.487c8.339-14.972,16.623-29.975,24.919-44.97
			c5.373-9.711,10.831-19.378,16.023-29.186c1.26-2.38,2.538-5.348,2.235-7.855c-1.317-10.893,3.362-20.181,7.163-29.729
			c1.987-4.994,4.094-9.947,6.365-14.816c1.012-2.171,0.558-3.267-1.481-4.343c-4.483-2.367-11.054,0.261-12.65,5.794
			c-1.528,5.293-2.081,10.86-3.269,16.26c-1.702,7.734-5.051,11.048-11.346,10.038c-3.735-0.6-6.448,1.534-8.321,4.369
			c-10.994,16.64-20.659,33.987-28.723,52.276c-6.339,14.379-10.708,29.331-14.449,44.486c-3.307,13.401-3.978,11.541-16.697,9.523
			c-3.48-0.552-5.225-2.648-5.539-6.381c-0.208-2.479-0.963-5.265-2.411-7.219c-4.851-6.547-4.466-13.686-2.366-20.69
			c5.554-18.533,11.566-36.929,17.387-55.381c0.489-1.551,0.986-3.104,1.36-4.684c2.053-8.669,6.023-11.515,14.523-10.314
			c6.087,0.86,11.515,3.196,16.287,7.125c4.771,3.927,5.909,3.832,9.552-0.915c9.574-12.477,14.398-26.847,16.798-42.21
			c1.699-10.871,2.219-16.502,16.362-19.7c2.703-0.611,5.495-0.819,8.224-1.33c8.324-1.559,16.667-3.039,24.948-4.803
			c9.534-2.031,17.612,1.207,23.681,9.334c4.314,5.777,8.885,11.387,13.65,16.8c6.005,6.821,14.185,8.862,22.858,9.727
			c4.036,0.402,8.102,1.011,12.011,2.058c4.41,1.181,6.559,4.808,5.987,8.979c-0.64,4.67-3.322,6.839-8.567,6.912
			c-1.166,0.016-2.332,0.002-3.499,0.002C305.541,96.146,305.521,96.304,305.499,96.461z"/>
		<path fill-rule="evenodd" clip-rule="evenodd" fill="#040402" d="M344.104,56.373c2.354,1.463,4.692,2.881,6.993,4.359
			c1.626,1.044,3.118,2.322,4.817,3.22c2.264,1.194,2.611,2.384,0.448,3.948c-8.249,5.959-16.478,11.946-24.805,17.793
			c-0.761,0.534-2.495,0.624-3.214,0.118c-3.366-2.367-6.335-5.35-9.849-7.435c-2.078-1.232-1.085-1.455-0.098-2.307
			c2.381-2.052,4.634-4.264,7.108-6.192c5.499-4.284,11.092-8.447,16.677-12.62C342.807,56.792,343.627,56.586,344.104,56.373z
			 M354.067,66.145c-0.664-0.527-1.112-0.929-1.604-1.265c-2.037-1.391-4.226-2.601-6.09-4.194
			c-1.559-1.333-2.438-1.133-4.013,0.092c-3.363,2.621-7.02,4.865-10.562,7.256c-8.15,5.501-8.091,5.417,0.059,11.42
			c1.824,1.342,2.926,1.292,4.603-0.025c5.19-4.079,10.494-8.012,15.759-11.997C352.718,67.056,353.245,66.717,354.067,66.145z"/>
		<path fill-rule="evenodd" clip-rule="evenodd" fill="#B9F1FA" d="M354.067,66.145c-0.822,0.572-1.35,0.911-1.849,1.288
			c-5.265,3.985-10.568,7.918-15.759,11.997c-1.677,1.317-2.778,1.368-4.603,0.025c-8.149-6.003-8.209-5.919-0.059-11.42
			c3.542-2.392,7.198-4.635,10.562-7.256c1.574-1.225,2.454-1.424,4.013-0.092c1.864,1.593,4.053,2.803,6.09,4.194
			C352.955,65.216,353.403,65.618,354.067,66.145z"/>
	</g>
</g>
<g id="Layer_2_copy">
	<path fill-rule="evenodd" clip-rule="evenodd" fill="none" d="M359.925,4c0.003-2.499-0.563-3.073-3.063-3.064
		C326.533,1.035,296.203,1,265.874,1c4.048,2.102,8.305,3.617,11.287,7.621c4.757,6.384,5.04,13.306,2.242,19.988
		c-2.729,6.517-8.537,10.739-15.646,11.217c-8.5,0.572-16.999-4.793-20.304-14.027c-2.328-6.504-0.545-15.902,7.883-20.921
		c2.178-1.297,4.359-2.586,6.539-3.878C204.548,1,151.221,1.042,97.896,0.902C94.471,0.894,93.792,1.575,93.799,5
		c0.132,63.659,0.097,127.317,0.097,190.976c3.54-4.496,8.875-6.262,13.209-4.292c3.777,1.717,5.839,4.528,5.825,8.861
		c-0.014,4.354-2.206,7.102-5.937,8.802c-3.488,1.59-8.56,0.713-11.022-1.806c-0.766-0.783-1.387-1.707-2.075-2.566
		c0,2.332,0.194,4.687-0.052,6.993c-0.27,2.524,0.554,3.069,3.052,3.067c86.656-0.075,173.312-0.075,259.967,0
		c2.499,0.003,3.065-0.563,3.063-3.062C359.847,142.649,359.847,73.324,359.925,4z M317.629,89.074
		c-0.64,4.67-3.322,6.839-8.567,6.912c-1.166,0.016-2.332,0.002-3.499,0.002c-0.021,0.158-0.042,0.316-0.063,0.474
		c-9.086-1.25-18.22-2.232-27.238-3.858c-2.028-0.366-3.805-1.22-5.411-2.361c-1.707,3.165-4.169,5.865-7.954,7.758
		c3.785-1.893,6.248-4.593,7.954-7.758c-2.225-1.581-4.12-3.715-5.883-5.895c-0.505-0.624-0.786-1.434-1.306-2.042
		c-3.992-4.655-5.171-4.544-7.809,0.88c-2.857,5.872-5.743,11.737-8.369,17.713c-2.915,6.634-3.157,13.16,1.865,19.082
		c3.827,4.513,7.49,9.184,11.569,13.459c0.58,0.608,1.129,1.233,1.678,1.858c2.528-3.938,5.177-7.695,8.301-10.299
		c-3.125,2.604-5.773,6.361-8.301,10.299c5.331,6.066,9.261,12.922,12.356,20.418c3.917,9.486,8.334,18.765,12.343,28.213
		c2.407,5.674,4.656,11.434,6.586,17.282c1.451,4.401-0.815,9.354-4.714,11.658c-3.476,2.054-6.812,1.645-10.682-1.886
		c-2.101-1.917-4.266-4.136-5.406-6.667c-4.946-10.981-9.042-22.368-14.397-33.136c-3.165-6.363-6.9-12.525-11.02-18.362
		c-3.277,1.317-7.078,1.045-11.765-1.819c4.687,2.864,8.487,3.137,11.765,1.819c-1.141-1.617-2.307-3.213-3.504-4.776
		c-4.56-5.953-10.669-10.698-15.831-16.222c-2.505-2.681-3.986-1.525-5.287,0.763c-3.23,5.681-6.373,11.411-9.547,17.124
		c5.021,1.924,10.242,3.725,14.404,7.292c-4.162-3.567-9.383-5.368-14.404-7.292c-0.384,0.69-0.764,1.382-1.149,2.071
		c1.459,1.132,2.958,2.224,4.553,3.221c-1.595-0.997-3.094-2.089-4.553-3.221c-0.879,1.576-1.759,3.152-2.65,4.723
		c-9.576,16.884-19.089,33.808-28.9,50.555c-3.724,6.359-8.209,7.393-14.107,4.26c-5.772-3.066-7.339-8.749-4.141-14.487
		c8.339-14.972,16.623-29.975,24.919-44.97c2.246-4.06,4.505-8.112,6.755-12.17c-3.388-2.032-6.291-4.56-7.323-8.689
		c1.033,4.13,3.935,6.657,7.323,8.689c3.132-5.648,6.246-11.308,9.268-17.016c1.26-2.38,2.538-5.348,2.235-7.855
		c-1.317-10.893,3.362-20.181,7.163-29.729c1.987-4.994,4.094-9.947,6.365-14.816c1.012-2.171,0.558-3.267-1.481-4.343
		c-1.016-0.536-2.141-0.804-3.289-0.852c0.049,2.601,0.171,5.23,0.416,7.921c-0.245-2.691-0.367-5.321-0.416-7.921
		c-3.918-0.163-8.127,2.366-9.362,6.646c-1.528,5.293-2.081,10.86-3.269,16.26c-1.702,7.734-5.051,11.048-11.346,10.038
		c-3.735-0.6-6.448,1.534-8.321,4.369c-10.994,16.64-20.659,33.987-28.723,52.276c-6.339,14.379-10.708,29.331-14.449,44.486
		c-3.307,13.401-3.978,11.541-16.697,9.523c-3.48-0.552-5.225-2.648-5.539-6.381c-0.208-2.479-0.963-5.265-2.411-7.219
		c-4.851-6.547-4.466-13.686-2.366-20.69c5.554-18.533,11.566-36.929,17.387-55.381c0.489-1.551,0.986-3.104,1.36-4.684
		c2.053-8.669,6.023-11.515,14.523-10.314c6.087,0.86,11.515,3.196,16.287,7.125c4.771,3.927,5.909,3.832,9.552-0.915
		c9.574-12.477,14.398-26.847,16.798-42.21c1.699-10.871,2.219-16.502,16.362-19.7c2.703-0.611,5.495-0.819,8.224-1.33
		c0.774-0.145,1.55-0.288,2.325-0.432c0.043-1.829,0.077-3.67,0.077-5.548c0,1.877-0.034,3.719-0.077,5.548
		c7.552-1.403,15.112-2.771,22.624-4.372c9.534-2.031,17.612,1.207,23.681,9.334c4.314,5.777,8.885,11.387,13.65,16.8
		c0.423,0.48,0.859,0.932,1.304,1.366c0.652-3.063,1.49-6.018,2.819-8.677c-1.329,2.659-2.167,5.613-2.819,8.677
		c5.858,5.73,13.492,7.557,21.555,8.36c4.036,0.402,8.102,1.011,12.011,2.058C316.052,81.276,318.2,84.903,317.629,89.074z
		 M356.362,67.9c-8.249,5.959-16.478,11.946-24.805,17.793c-0.761,0.534-2.495,0.624-3.214,0.118
		c-3.366-2.367-6.335-5.35-9.849-7.435c-2.078-1.232-1.085-1.455-0.098-2.307c2.381-2.052,4.634-4.264,7.108-6.192
		c5.499-4.284,11.092-8.447,16.677-12.62c0.624-0.467,1.444-0.672,1.921-0.885c2.354,1.463,4.692,2.881,6.993,4.359
		c1.626,1.044,3.118,2.322,4.817,3.22C358.178,65.146,358.525,66.336,356.362,67.9z"/>
	<path fill-rule="evenodd" clip-rule="evenodd" fill="#F7DF00" d="M265.874,1c4.048,2.102,8.305,3.617,11.287,7.621
		c4.757,6.384,5.04,13.306,2.242,19.988c-2.729,6.517-8.537,10.739-15.646,11.217c-8.5,0.572-16.999-4.793-20.304-14.027
		c-2.328-6.504-0.545-15.902,7.883-20.921c2.178-1.297,4.359-2.586,6.539-3.878C260.541,1,263.208,1,265.874,1z"/>
	<path fill-rule="evenodd" clip-rule="evenodd" fill="#F7DF00" d="M93.896,195.976c3.54-4.496,8.875-6.262,13.209-4.292
		c3.777,1.717,5.839,4.528,5.825,8.861c-0.014,4.354-2.206,7.102-5.937,8.802c-3.488,1.59-8.56,0.713-11.022-1.806
		c-0.766-0.783-1.387-1.707-2.075-2.566C93.896,201.975,93.896,198.975,93.896,195.976z"/>
	<path fill-rule="evenodd" clip-rule="evenodd" fill="#F7DF00" d="M249.66,152.819c4.12,5.837,7.855,11.999,11.02,18.362
		c5.355,10.768,9.451,22.154,14.397,33.136c1.141,2.531,3.306,4.75,5.406,6.667c3.87,3.53,7.206,3.939,10.682,1.886
		c3.898-2.305,6.165-7.257,4.714-11.658c-1.93-5.849-4.179-11.608-6.586-17.282c-4.009-9.448-8.426-18.727-12.343-28.213
		c-3.095-7.496-7.025-14.352-12.356-20.418C259.94,142.547,255.692,150.395,249.66,152.819z"/>
	<path fill-rule="evenodd" clip-rule="evenodd" fill="#F7DF00" d="M192.503,98.023c6.295,1.01,9.644-2.304,11.346-10.038
		c1.188-5.4,1.741-10.967,3.269-16.26c1.234-4.28,5.443-6.809,9.362-6.646c-0.118-6.215,0.19-12.265,0.339-18.531
		c-0.775,0.144-1.55,0.287-2.325,0.432c-2.729,0.511-5.521,0.719-8.224,1.33c-14.143,3.198-14.663,8.829-16.362,19.7
		c-2.4,15.363-7.225,29.733-16.798,42.21c-3.643,4.747-4.781,4.842-9.552,0.915c-4.772-3.93-10.2-6.265-16.287-7.125
		c-8.5-1.201-12.47,1.645-14.523,10.314c-0.374,1.58-0.871,3.133-1.36,4.684c-5.821,18.452-11.833,36.848-17.387,55.381
		c-2.1,7.005-2.484,14.144,2.366,20.69c1.448,1.954,2.202,4.74,2.411,7.219c0.313,3.732,2.059,5.829,5.539,6.381
		c12.719,2.018,13.39,3.878,16.697-9.523c3.74-15.155,8.109-30.107,14.449-44.486c8.063-18.289,17.729-35.637,28.723-52.276
		C186.055,99.557,188.769,97.423,192.503,98.023z"/>
	<path fill-rule="evenodd" clip-rule="evenodd" fill="#F7DF00" d="M205.896,145c-2.902-1.935-6.502-3.406-9.677-5.311
		c-2.25,4.058-4.509,8.11-6.755,12.17c-8.297,14.995-16.58,29.998-24.919,44.97c-3.198,5.738-1.631,11.421,4.141,14.487
		c5.897,3.133,10.383,2.1,14.107-4.26c9.811-16.747,19.324-33.671,28.9-50.555c0.891-1.57,1.771-3.146,2.65-4.723
		c-2.217-1.72-4.308-3.565-6.354-5.456C207.269,145.91,206.565,145.479,205.896,145z"/>
	<path fill-rule="evenodd" clip-rule="evenodd" fill="#F5FE00" d="M214.342,151.779c0.385-0.689,0.765-1.381,1.149-2.071
		c-2.617-1.003-5.174-2.047-7.503-3.385C210.034,148.214,212.125,150.06,214.342,151.779z"/>
	<path fill-rule="evenodd" clip-rule="evenodd" fill="#FF7900" d="M276.772,68.311c-4.765-5.413-9.335-11.023-13.65-16.8
		c-6.069-8.127-14.146-11.365-23.681-9.334c-7.511,1.601-15.072,2.968-22.624,4.372c-0.149,6.266-0.457,12.315-0.339,18.531
		c1.148,0.048,2.272,0.315,3.289,0.852c2.039,1.076,2.494,2.172,1.481,4.343c-2.271,4.87-4.378,9.823-6.365,14.816
		c-3.8,9.548-8.479,18.835-7.163,29.729c0.303,2.508-0.976,5.476-2.235,7.855c-3.022,5.708-6.136,11.367-9.268,17.016
		c3.174,1.904,6.774,3.376,9.677,5.311c0.669,0.479,1.374,0.91,2.093,1.323c-3.364-3.107-6.608-6.336-10.093-9.323
		c3.485,2.987,6.729,6.216,10.093,9.323c2.329,1.338,4.886,2.382,7.503,3.385c3.174-5.713,6.317-11.443,9.547-17.124
		c1.301-2.288,2.782-3.443,5.287-0.763c5.162,5.523,11.271,10.269,15.831,16.222c1.197,1.563,2.363,3.159,3.504,4.776
		c6.032-2.425,10.28-10.272,14.934-17.521c-0.549-0.625-1.098-1.25-1.678-1.858c-4.079-4.275-7.742-8.946-11.569-13.459
		c-5.021-5.922-4.779-12.448-1.865-19.082c2.626-5.977,5.512-11.841,8.369-17.713c2.638-5.424,3.817-5.535,7.809-0.88
		c0.521,0.607,0.801,1.417,1.306,2.042c1.764,2.179,3.659,4.313,5.883,5.895c3.208-5.947,3.731-13.542,5.227-20.565
		C277.632,69.242,277.195,68.791,276.772,68.311z"/>
	<path fill-rule="evenodd" clip-rule="evenodd" fill="#F7DF00" d="M311.642,80.095c-3.909-1.047-7.975-1.656-12.011-2.058
		c-8.063-0.803-15.696-2.63-21.555-8.36c-1.495,7.023-2.019,14.618-5.227,20.565c1.606,1.141,3.383,1.996,5.411,2.361
		c9.019,1.626,18.152,2.608,27.238,3.858c0.021-0.157,0.042-0.315,0.063-0.474c1.167,0,2.333,0.014,3.499-0.002
		c5.245-0.073,7.928-2.242,8.567-6.912C318.2,84.903,316.052,81.276,311.642,80.095z"/>
	<path fill-rule="evenodd" clip-rule="evenodd" fill="#040402" d="M344.104,56.373c2.354,1.463,4.692,2.881,6.993,4.359
		c1.626,1.044,3.118,2.322,4.817,3.22c2.264,1.194,2.611,2.384,0.448,3.948c-8.249,5.959-16.478,11.946-24.805,17.793
		c-0.761,0.534-2.495,0.624-3.214,0.118c-3.366-2.367-6.335-5.35-9.849-7.435c-2.078-1.232-1.085-1.455-0.098-2.307
		c2.381-2.052,4.634-4.264,7.108-6.192c5.499-4.284,11.092-8.447,16.677-12.62C342.807,56.792,343.627,56.586,344.104,56.373z
		 M354.067,66.145c-0.664-0.527-1.112-0.929-1.604-1.265c-2.037-1.391-4.226-2.601-6.09-4.194c-1.559-1.333-2.438-1.133-4.013,0.092
		c-3.363,2.621-7.02,4.865-10.562,7.256c-8.15,5.501-8.091,5.417,0.059,11.42c1.824,1.342,2.926,1.292,4.603-0.025
		c5.19-4.079,10.494-8.012,15.759-11.997C352.718,67.056,353.245,66.717,354.067,66.145z"/>
	<path fill-rule="evenodd" clip-rule="evenodd" fill="#B9F1FA" d="M354.067,66.145c-0.822,0.572-1.35,0.911-1.849,1.288
		c-5.265,3.985-10.568,7.918-15.759,11.997c-1.677,1.317-2.778,1.368-4.603,0.025c-8.149-6.003-8.209-5.919-0.059-11.42
		c3.542-2.392,7.198-4.635,10.562-7.256c1.574-1.225,2.454-1.424,4.013-0.092c1.864,1.593,4.053,2.803,6.09,4.194
		C352.955,65.216,353.403,65.618,354.067,66.145z"/>
</g>
</svg>
