<?xml version="1.0" encoding="utf-8"?>
<!-- Generator: Adobe Illustrator 21.1.0, SVG Export Plug-In . SVG Version: 6.00 Build 0)  -->
<svg version="1.1" xmlns="http://www.w3.org/2000/svg" xmlns:xlink="http://www.w3.org/1999/xlink" x="0px" y="0px"
	 viewBox="0 0 500 200" style="enable-background:new 0 0 500 200;" xml:space="preserve">
<style type="text/css">
	.st0{fill:#F04B4C;}
	.st1{fill:none;}
	.st2{fill:#F1F2F2;}
</style>
<g id="Layer_3">
	<rect y="103.3" class="st0" width="500" height="96.7"/>
</g>
<g id="Layer_1">
	<g>
		<rect x="18" y="39.3" class="st1" width="497.3" height="146"/>
		<path class="st2" d="M32.7,157.1c0,1.5-0.5,2.8-1.6,3.9c-1.1,1.1-2.4,1.6-3.9,1.6c-1.6,0-3-0.6-4.1-1.7c-1.1-1.1-1.7-2.5-1.7-4.2
			v-23.5h4.5v18.5c0.2-0.1,0.7-0.1,1.3-0.1c1.5,0,2.8,0.5,3.9,1.6C32.1,154.3,32.7,155.6,32.7,157.1z M29.7,157.1
			c0-0.7-0.2-1.2-0.7-1.7c-0.5-0.5-1.1-0.7-1.7-0.7c-0.7,0-1.2,0.2-1.7,0.7c-0.5,0.5-0.7,1.1-0.7,1.7c0,0.7,0.2,1.2,0.7,1.7
			c0.5,0.5,1.1,0.7,1.7,0.7c0.7,0,1.2-0.2,1.7-0.7C29.4,158.4,29.7,157.8,29.7,157.1z M46.2,157.1c0,1.5-0.5,2.8-1.6,3.9
			c-1.1,1.1-2.4,1.6-3.9,1.6c-1.6,0-3-0.6-4.1-1.7c-1.1-1.1-1.7-2.5-1.7-4.2v-23.5h4.5v18.5c0.2-0.1,0.7-0.1,1.3-0.1
			c1.5,0,2.8,0.5,3.9,1.6C45.6,154.3,46.2,155.6,46.2,157.1z M43.1,157.1c0-0.7-0.2-1.2-0.7-1.7c-0.5-0.5-1.1-0.7-1.7-0.7
			c-0.7,0-1.2,0.2-1.7,0.7c-0.5,0.5-0.7,1.1-0.7,1.7c0,0.7,0.2,1.2,0.7,1.7c0.5,0.5,1.1,0.7,1.7,0.7c0.7,0,1.2-0.2,1.7-0.7
			C42.9,158.4,43.1,157.8,43.1,157.1z"/>
		<path class="st2" d="M70.5,155.3c0,2.4-0.7,4.2-2.2,5.4c-1.5,1.3-3.4,1.9-5.8,1.9c-2.4,0-4.3-0.6-5.8-1.9
			c-1.5-1.3-2.2-3.1-2.2-5.4v-4.7c0-1.4,0.6-3.2,1.9-5.6c1.3-2.3,1.9-4.2,1.9-5.5c0-1.1-0.4-2-1.2-2.7c-0.8-0.7-1.7-1.1-2.7-1.1
			c-1.5,0-2.6,0.3-3.1,0.9c1.4,0,2.6,0.5,3.5,1.4c0.9,0.9,1.3,2,1.3,3.3c0,1.4-0.5,2.7-1.5,3.6c-1,1-2.2,1.5-3.6,1.5
			c-1.6,0-2.9-0.6-3.9-1.8c-1-1.2-1.5-2.6-1.5-4.3c0-2.2,0.9-4,2.6-5.5c1.8-1.4,3.8-2.2,6.1-2.2c2.4,0,4.4,0.6,5.9,1.7
			c1.5,1.1,2.3,2.8,2.3,5c0,1.4-0.6,3.4-1.8,6c-1.2,2.6-1.8,4.4-1.8,5.5v5.2c0,0.8,0.4,1.4,1.1,1.9c0.7,0.4,1.5,0.6,2.4,0.6
			c0.9,0,1.7-0.2,2.4-0.7c0.7-0.5,1.1-1.1,1.1-1.8v-11.8c0-1.8-0.7-2.9-2.1-3.3c0.2-0.9,0.2-1.7,0.1-2.5c2.4-0.9,3.7-3.2,3.7-6.9
			h4.5c-0.3,3.7-1.6,6.4-3.8,8.1c1.4,1.2,2.2,2.7,2.2,4.5V155.3z M53.4,141.4c0-0.6-0.2-1.2-0.6-1.6c-0.4-0.4-1-0.6-1.6-0.6
			c-0.6,0-1.2,0.2-1.6,0.6c-0.4,0.4-0.6,1-0.6,1.6c0,0.6,0.2,1.2,0.6,1.6c0.4,0.4,1,0.6,1.6,0.6c0.6,0,1.2-0.2,1.6-0.6
			C53.1,142.6,53.4,142.1,53.4,141.4z"/>
		<path class="st2" d="M70.5,128.6H66v-10.2h4.5V128.6z"/>
		<path class="st2" d="M88.8,157.1c0,1.5-0.5,2.8-1.6,3.9c-1.1,1.1-2.4,1.6-3.9,1.6c-1.6,0-3-0.6-4.1-1.7c-1.1-1.1-1.7-2.5-1.7-4.2
			v-23.5h4.5v18.5c0.2-0.1,0.7-0.1,1.3-0.1c1.5,0,2.8,0.5,3.9,1.6C88.3,154.3,88.8,155.6,88.8,157.1z M85.8,157.1
			c0-0.7-0.2-1.2-0.7-1.7c-0.5-0.5-1.1-0.7-1.7-0.7c-0.7,0-1.2,0.2-1.7,0.7c-0.5,0.5-0.7,1.1-0.7,1.7c0,0.7,0.2,1.2,0.7,1.7
			c0.5,0.5,1.1,0.7,1.7,0.7c0.7,0,1.2-0.2,1.7-0.7C85.6,158.4,85.8,157.8,85.8,157.1z"/>
		<path class="st2" d="M113.8,155.5c0,2.5-1.1,4.3-3.4,5.5c-1.8,1-4.2,1.5-7.1,1.5c-2.9,0-5.2-0.5-7-1.5c-2.2-1.2-3.2-3.1-3.2-5.6
			v-7.3c0-1.7,0.5-3.2,1.4-4.4c1-1.2,2.3-1.8,4.1-1.8c1.5,0,2.8,0.5,3.9,1.6c1.1,1,1.6,2.3,1.6,3.9c0,1.5-0.5,2.8-1.6,3.8
			c-1.1,1.1-2.4,1.6-3.9,1.6c-0.4,0-0.8,0-1.1-0.1v2.2c0,2.5,1.9,3.7,5.8,3.7c3.9,0,5.9-1.3,5.9-3.8v-13.7c0-1.6-0.7-2.8-2.2-3.6
			c-1.2-0.7-2.8-1-4.6-1c-4.6,0-7,1.2-7.4,3.5h-4.3c0.6-4.8,4.4-7.3,11.4-7.3c3.2,0,5.9,0.6,7.9,1.8c2.5,1.5,3.7,3.8,3.7,6.9V155.5z
			 M101.2,147.5c0-0.7-0.2-1.2-0.7-1.7c-0.5-0.5-1.1-0.7-1.8-0.7s-1.3,0.2-1.8,0.7c-0.5,0.5-0.7,1-0.7,1.7c0,0.7,0.2,1.2,0.7,1.7
			s1.1,0.7,1.8,0.7s1.3-0.2,1.8-0.7C100.9,148.7,101.2,148.2,101.2,147.5z"/>
		<path class="st2" d="M138,162h-4.5v-20.9c0-1.3-0.5-2.4-1.4-3.3c-0.9-0.8-2.2-1.3-3.7-1.3s-2.9,0.5-3.9,1.6c-1,1-1.5,2.4-1.6,4
			h-4.3c0.1-2.9,1.1-5.2,2.8-6.9c1.8-1.7,4.1-2.6,6.9-2.6c2.7,0,5,0.7,6.8,2.1c1.8,1.4,2.8,3.4,2.8,6.2V162z"/>
		<path class="st2" d="M159.6,157.1c0,1.5-0.5,2.8-1.6,3.9c-1.1,1.1-2.4,1.6-3.9,1.6c-1.6,0-3-0.6-4.1-1.7c-1.1-1.1-1.7-2.5-1.7-4.2
			v-35.6l-4.3,6.3l-2.9-0.9c-0.2-4.5-0.9-8.7-2-12.6h3.9c0.6,3.8,0.9,6.6,0.9,8.6l5.1-8c1,0.1,1.8,0.6,2.6,1.4
			c0.8,0.8,1.2,1.7,1.2,2.7v33c0.2-0.1,0.7-0.1,1.3-0.1c1.5,0,2.8,0.5,3.9,1.6C159,154.3,159.6,155.6,159.6,157.1z M156.5,157.1
			c0-0.7-0.2-1.2-0.7-1.7c-0.5-0.5-1.1-0.7-1.7-0.7c-0.7,0-1.2,0.2-1.7,0.7c-0.5,0.5-0.7,1.1-0.7,1.7c0,0.7,0.2,1.2,0.7,1.7
			c0.5,0.5,1.1,0.7,1.7,0.7c0.7,0,1.2-0.2,1.7-0.7C156.3,158.4,156.5,157.8,156.5,157.1z"/>
		<path class="st2" d="M182,156.8c0,1.7-0.6,3.1-1.7,4.1c-1.1,1.1-2.5,1.6-4.1,1.6c-1.5,0-2.8-0.5-3.9-1.6c-1.1-1.1-1.6-2.3-1.6-3.8
			c0-1.5,0.5-2.8,1.6-3.9c1.1-1.1,2.4-1.6,3.9-1.6c0.5,0,1,0,1.3,0.1v-10.5c0-3-2.2-4.6-6.6-4.6c-1.8,0-3.4,0.6-4.6,1.7
			c-1.3,1.1-1.9,2.6-1.9,4.4h-4.3c0.1-3.2,1.2-5.6,3.1-7.4c1.9-1.8,4.5-2.6,7.7-2.6c3.2,0,5.7,0.6,7.6,1.9c2.3,1.5,3.5,3.8,3.5,6.8
			V156.8z M178.7,157.1c0-0.7-0.2-1.2-0.7-1.7c-0.5-0.5-1.1-0.7-1.7-0.7c-0.7,0-1.2,0.2-1.7,0.7c-0.5,0.5-0.7,1.1-0.7,1.7
			c0,0.7,0.2,1.2,0.7,1.7c0.5,0.5,1.1,0.7,1.7,0.7c0.7,0,1.2-0.2,1.7-0.7C178.5,158.3,178.7,157.7,178.7,157.1z"/>
		<path class="st2" d="M186.4,116.2c-0.5,2.5-1.2,4.7-2,6.4c-0.9,1.7-2,3.1-3.3,4.1c-1.3,1-2.9,1.8-4.7,2.2
			c-1.8,0.4-3.9,0.6-6.2,0.6h-2.4v-2.9c1,0,1.8-0.4,2.4-1c0.6-0.6,1.1-1.2,1.3-1.9c-1.2-0.2-2.1-0.7-2.8-1.6c-0.7-0.9-1-1.9-1-3.2
			c0-1.3,0.5-2.4,1.4-3.2c0.9-0.9,2-1.3,3.3-1.3c1.4,0,2.6,0.5,3.4,1.4c0.8,0.9,1.2,2.1,1.2,3.5c0,1.4-0.3,2.7-1,4
			c-0.7,1.3-1.4,2.3-2.1,3c2.4-0.4,4.4-1.6,5.9-3.5c1.5-1.9,2.3-4.1,2.4-6.7H186.4z M174.1,119.2c0-0.5-0.2-1-0.5-1.3
			c-0.4-0.4-0.8-0.5-1.3-0.5c-0.5,0-1,0.2-1.3,0.5c-0.3,0.4-0.5,0.8-0.5,1.3c0,0.5,0.2,1,0.5,1.3c0.3,0.4,0.8,0.5,1.3,0.5
			c0.5,0,1-0.2,1.3-0.5C173.9,120.2,174.1,119.7,174.1,119.2z"/>
		<path class="st2" d="M210.4,155.5c0,2.5-1.1,4.3-3.4,5.5c-1.8,1-4.2,1.5-7.1,1.5c-2.9,0-5.2-0.5-7-1.5c-2.2-1.2-3.2-3.1-3.2-5.6
			v-7.3c0-1.7,0.5-3.2,1.4-4.4c1-1.2,2.3-1.8,4.1-1.8c1.5,0,2.8,0.5,3.9,1.6c1.1,1,1.6,2.3,1.6,3.9c0,1.5-0.5,2.8-1.6,3.8
			c-1.1,1.1-2.4,1.6-3.9,1.6c-0.4,0-0.8,0-1.1-0.1v2.2c0,2.5,1.9,3.7,5.8,3.7c3.9,0,5.9-1.3,5.9-3.8v-13.7c0-1.6-0.7-2.8-2.2-3.6
			c-1.2-0.7-2.8-1-4.6-1c-4.6,0-7,1.2-7.4,3.5h-4.3c0.6-4.8,4.4-7.3,11.4-7.3c3.2,0,5.9,0.6,7.9,1.8c2.5,1.5,3.7,3.8,3.7,6.9V155.5z
			 M197.7,147.5c0-0.7-0.2-1.2-0.7-1.7c-0.5-0.5-1.1-0.7-1.8-0.7s-1.3,0.2-1.8,0.7c-0.5,0.5-0.7,1-0.7,1.7c0,0.7,0.2,1.2,0.7,1.7
			s1.1,0.7,1.8,0.7s1.3-0.2,1.8-0.7C197.5,148.7,197.7,148.2,197.7,147.5z"/>
		<path class="st2" d="M238.2,154.7c0,5.2-3.6,7.8-10.7,7.8c-7.1,0-10.6-2.6-10.6-7.8v-3.3c0-2.3,1-3.9,2.9-4.9
			c-2.2-1.5-3.3-3.7-3.3-6.6c0-2.1,0.6-3.9,1.8-5.2c1.2-1.4,2.8-2.1,4.9-2.1c1.4,0,2.7,0.4,3.7,1.3c1,0.9,1.5,2.1,1.5,3.5
			c0,1.3-0.5,2.4-1.4,3.4c-0.9,1-2.1,1.4-3.6,1.4c-0.8,0-1.5-0.1-2-0.4c0.4,1.8,1.2,2.7,2.6,2.7h5.1v3.5h-5.1c-0.8,0-1.4,0.3-1.9,1
			c-0.5,0.7-0.7,1.4-0.7,2.3v3.3c0,2.6,2.1,3.9,6.2,3.9c4.2,0,6.2-1.3,6.2-3.9v-21.5h4.5V154.7z M225.7,137.6c0-0.7-0.2-1.2-0.7-1.7
			s-1-0.6-1.7-0.6c-0.7,0-1.2,0.2-1.7,0.6c-0.4,0.4-0.7,1-0.7,1.7c0,0.7,0.2,1.2,0.7,1.7c0.4,0.4,1,0.6,1.7,0.6
			c0.7,0,1.2-0.2,1.7-0.6S225.7,138.3,225.7,137.6z"/>
		<path class="st2" d="M238.2,175.1c0,1.6-0.7,2.8-2,3.6c-1.2,0.7-2.7,1.1-4.5,1.1c-1.6,0-3-0.3-4.2-1c-1.3-0.8-2-1.8-2-3.2v-2.2
			h-0.4c-1.2,0-2.2-0.4-3.1-1.3c-0.8-0.8-1.3-1.8-1.3-3c0-1.2,0.4-2.2,1.3-3.1c0.8-0.9,1.9-1.3,3.1-1.3c1.2,0,2.3,0.4,3.2,1.2
			c0.9,0.8,1.4,1.8,1.4,3.2v6.5c0,0.7,0.7,1.1,2.2,1.1c1.5,0,2.3-0.4,2.3-1.1v-10.2h4.2V175.1z M227,169c0-0.5-0.2-1-0.6-1.4
			c-0.4-0.4-0.8-0.6-1.4-0.6c-0.5,0-1,0.2-1.4,0.6c-0.4,0.4-0.6,0.8-0.6,1.4c0,0.5,0.2,1,0.6,1.4c0.4,0.4,0.9,0.6,1.4,0.6
			c0.5,0,1-0.2,1.4-0.6C226.8,170,227,169.5,227,169z"/>
		<path class="st2" d="M238.2,128.6h-4.5v-10.2h4.5V128.6z"/>
		<path class="st2" d="M260.9,157.1c0,1.5-0.5,2.8-1.6,3.9c-1.1,1.1-2.4,1.6-3.9,1.6c-1.6,0-3-0.6-4.1-1.7c-1.1-1.1-1.7-2.5-1.7-4.2
			v-27.1c0-1.1,0.4-2.6,1.3-4.4c0.8-1.8,1.3-3.2,1.3-4.1c0-1.1-0.4-1.9-1.1-2.5c-0.7-0.6-1.6-0.9-2.7-0.9c-1.6,0-2.8,0.3-3.6,0.9
			c1.2,0,2.2,0.5,3,1.4c0.7,0.8,1,1.8,1,2.9c0,1.3-0.5,2.4-1.4,3.3c-0.9,0.9-2,1.4-3.4,1.4c-1.4,0-2.5-0.5-3.4-1.5
			c-0.9-1-1.3-2.2-1.3-3.5c0-2.6,0.9-4.6,2.6-6c1.6-1.3,3.7-1.9,6.3-1.9c2.1,0,4,0.6,5.5,1.7c1.8,1.2,2.7,2.9,2.7,4.8
			c0,1.1-0.4,2.7-1.2,4.6c-0.8,2-1.2,3.5-1.2,4.5v21.6c0.2-0.1,0.7-0.1,1.3-0.1c1.5,0,2.8,0.5,3.9,1.6
			C260.4,154.3,260.9,155.6,260.9,157.1z M246.3,122.9c0-0.6-0.2-1.2-0.6-1.6c-0.4-0.4-1-0.6-1.6-0.6c-0.6,0-1.2,0.2-1.6,0.6
			c-0.4,0.4-0.6,1-0.6,1.6c0,0.6,0.2,1.2,0.6,1.6c0.4,0.4,1,0.6,1.6,0.6c0.6,0,1.2-0.2,1.6-0.6C246.1,124.1,246.3,123.5,246.3,122.9
			z M257.9,157.1c0-0.7-0.2-1.2-0.7-1.7c-0.5-0.5-1.1-0.7-1.7-0.7c-0.7,0-1.2,0.2-1.7,0.7c-0.5,0.5-0.7,1.1-0.7,1.7
			c0,0.7,0.2,1.2,0.7,1.7c0.5,0.5,1.1,0.7,1.7,0.7c0.7,0,1.2-0.2,1.7-0.7C257.7,158.4,257.9,157.8,257.9,157.1z"/>
		<path class="st2" d="M288.7,148.4c0,1.9-0.5,3.2-1.5,4c1.9,1,2.8,2.6,2.8,4.8c0,1.5-0.5,2.8-1.6,3.9c-1.1,1-2.3,1.6-3.8,1.6
			c-1.4,0-2.6-0.4-3.6-1.3c-1-0.9-1.6-2-1.8-3.3c-1.5,0.8-2.6,1.3-3.3,1.7c-1.2,0.7-2.1,1.5-2.7,2.4h-4.5v-18.5
			c-0.5,0.1-0.9,0.1-1.2,0.1c-1.5,0-2.8-0.5-3.9-1.6c-1.1-1.1-1.6-2.4-1.6-3.9c0-1.5,0.5-2.8,1.6-3.8c1.1-1.1,2.4-1.6,3.9-1.6
			c1.6,0,3,0.6,4.1,1.7c1.1,1.1,1.6,2.5,1.6,4.2v18.3c0.8-0.6,2.5-1.4,5.2-2.5c2.4-1,4.1-2,5-3c0.7-0.7,1-1.9,1-3.5v-14.5h4.5V148.4
			z M269.9,138.2c0-0.7-0.2-1.2-0.7-1.7c-0.5-0.5-1.1-0.7-1.7-0.7c-0.7,0-1.2,0.2-1.7,0.7c-0.5,0.5-0.7,1.1-0.7,1.7
			c0,0.7,0.2,1.2,0.7,1.7c0.5,0.5,1.1,0.7,1.7,0.7c0.7,0,1.2-0.2,1.7-0.7C269.6,139.4,269.9,138.9,269.9,138.2z M287,157.2
			c0-0.7-0.2-1.2-0.7-1.7c-0.5-0.5-1.1-0.7-1.7-0.7c-0.7,0-1.2,0.2-1.7,0.7c-0.5,0.5-0.7,1-0.7,1.7c0,0.7,0.2,1.2,0.7,1.7
			c0.5,0.5,1.1,0.7,1.7,0.7c0.7,0,1.2-0.2,1.7-0.7C286.7,158.4,287,157.8,287,157.2z"/>
		<path class="st2" d="M317.9,162h-4.5v-18.9c0-3.1-0.8-5.3-2.5-6.6l-4.5,3.2l-4.4-3.2c-2,1-3,3.3-3,6.8c0,1.2,0.3,2.9,1,5.1
			c0.7,2.3,1,3.9,1,5c0,0.8-0.1,1.6-0.4,2.4c0.3-0.7,1-1.6,2.1-2.8c1.1-1.2,2.2-2.1,3.2-2.7c-1.3-0.1-2.3-0.6-3.1-1.5
			c-0.7-0.9-1.1-1.9-1.1-3c0-1.3,0.4-2.4,1.3-3.3c0.9-0.9,2-1.4,3.3-1.4c1.3,0,2.4,0.5,3.3,1.4c0.9,0.9,1.4,2,1.4,3.3
			c0,2.1-1.1,4.2-3.2,6.6c-2.9,3.1-4.6,5.1-5,6c-0.7,1.4-1.1,2.6-1.1,3.7h-4.5c0.1-1.8,0.1-3.7,0.1-5.5c0-1.9-0.3-3.7-0.9-5.3
			c-1.3-3.5-1.9-6-1.9-7.8c0-2.6,0.7-4.9,2-6.8c1.3-1.9,3.2-3.2,5.7-3.9l4.1,3.1l3.8-3.1c5.1,0.8,7.7,4.2,7.7,10.4V162z
			 M308.5,145.7c0-0.6-0.2-1.1-0.6-1.5c-0.4-0.4-0.9-0.6-1.5-0.6c-0.6,0-1.1,0.2-1.5,0.6c-0.4,0.4-0.6,0.9-0.6,1.5
			c0,0.6,0.2,1.1,0.6,1.5c0.4,0.4,0.9,0.6,1.5,0.6c0.6,0,1.1-0.2,1.5-0.6C308.3,146.9,308.5,146.4,308.5,145.7z"/>
		<path class="st2" d="M317.9,175.1c0,1.6-0.7,2.8-2,3.6c-1.2,0.7-2.7,1.1-4.5,1.1c-1.6,0-3-0.3-4.2-1c-1.3-0.8-2-1.8-2-3.2v-2.2
			h-0.4c-1.2,0-2.2-0.4-3.1-1.3c-0.8-0.8-1.3-1.8-1.3-3c0-1.2,0.4-2.2,1.3-3.1c0.8-0.9,1.9-1.3,3.1-1.3c1.2,0,2.3,0.4,3.2,1.2
			c0.9,0.8,1.4,1.8,1.4,3.2v6.5c0,0.7,0.7,1.1,2.2,1.1c1.5,0,2.3-0.4,2.3-1.1v-10.2h4.2V175.1z M306.7,169c0-0.5-0.2-1-0.6-1.4
			c-0.4-0.4-0.8-0.6-1.4-0.6c-0.5,0-1,0.2-1.4,0.6c-0.4,0.4-0.6,0.8-0.6,1.4c0,0.5,0.2,1,0.6,1.4c0.4,0.4,0.9,0.6,1.4,0.6
			c0.5,0,1-0.2,1.4-0.6C306.5,170,306.7,169.5,306.7,169z"/>
		<path class="st2" d="M322.3,116.2c-0.5,2.5-1.2,4.7-2,6.4c-0.9,1.7-2,3.1-3.3,4.1c-1.3,1-2.9,1.8-4.7,2.2
			c-1.8,0.4-3.9,0.6-6.2,0.6h-2.4v-2.9c1,0,1.8-0.4,2.4-1c0.6-0.6,1.1-1.2,1.3-1.9c-1.2-0.2-2.1-0.7-2.8-1.6c-0.7-0.9-1-1.9-1-3.2
			c0-1.3,0.5-2.4,1.4-3.2c0.9-0.9,2-1.3,3.3-1.3c1.4,0,2.6,0.5,3.4,1.4c0.8,0.9,1.2,2.1,1.2,3.5c0,1.4-0.3,2.7-1,4
			c-0.7,1.3-1.4,2.3-2.1,3c2.4-0.4,4.4-1.6,5.9-3.5c1.5-1.9,2.3-4.1,2.4-6.7H322.3z M310,119.2c0-0.5-0.2-1-0.5-1.3
			c-0.4-0.4-0.8-0.5-1.3-0.5c-0.5,0-1,0.2-1.3,0.5c-0.3,0.4-0.5,0.8-0.5,1.3c0,0.5,0.2,1,0.5,1.3c0.3,0.4,0.8,0.5,1.3,0.5
			c0.5,0,1-0.2,1.3-0.5C309.8,120.2,310,119.7,310,119.2z"/>
		<path class="st2" d="M336.2,157.1c0,1.5-0.5,2.8-1.6,3.9c-1.1,1.1-2.4,1.6-3.9,1.6c-1.6,0-3-0.6-4.1-1.7c-1.1-1.1-1.7-2.5-1.7-4.2
			v-23.5h4.5v18.5c0.2-0.1,0.7-0.1,1.3-0.1c1.5,0,2.8,0.5,3.9,1.6C335.7,154.3,336.2,155.6,336.2,157.1z M333.2,157.1
			c0-0.7-0.2-1.2-0.7-1.7c-0.5-0.5-1.1-0.7-1.7-0.7c-0.7,0-1.2,0.2-1.7,0.7c-0.5,0.5-0.7,1.1-0.7,1.7c0,0.7,0.2,1.2,0.7,1.7
			c0.5,0.5,1.1,0.7,1.7,0.7c0.7,0,1.2-0.2,1.7-0.7C333,158.4,333.2,157.8,333.2,157.1z"/>
		<path class="st2" d="M360.6,154.7c0,5.2-3.6,7.8-10.7,7.8c-7.1,0-10.6-2.6-10.6-7.8v-3.3c0-2.3,1-3.9,2.9-4.9
			c-2.2-1.5-3.3-3.7-3.3-6.6c0-2.1,0.6-3.9,1.8-5.2c1.2-1.4,2.8-2.1,4.9-2.1c1.4,0,2.7,0.4,3.7,1.3c1,0.9,1.5,2.1,1.5,3.5
			c0,1.3-0.5,2.4-1.4,3.4c-0.9,1-2.1,1.4-3.6,1.4c-0.8,0-1.5-0.1-2-0.4c0.4,1.8,1.2,2.7,2.6,2.7h5.1v3.5h-5.1c-0.8,0-1.4,0.3-1.9,1
			c-0.5,0.7-0.7,1.4-0.7,2.3v3.3c0,2.6,2.1,3.9,6.2,3.9c4.2,0,6.2-1.3,6.2-3.9v-21.5h4.5V154.7z M348.2,137.6c0-0.7-0.2-1.2-0.7-1.7
			s-1-0.6-1.7-0.6c-0.7,0-1.2,0.2-1.7,0.6c-0.4,0.4-0.7,1-0.7,1.7c0,0.7,0.2,1.2,0.7,1.7c0.4,0.4,1,0.6,1.7,0.6
			c0.7,0,1.2-0.2,1.7-0.6S348.2,138.3,348.2,137.6z"/>
		<path class="st2" d="M359.8,124.5c0,1-0.4,1.9-1.1,2.6c-0.7,0.7-1.6,1.1-2.7,1.1c-2.4,0-5-1-8.1-3c-0.6,0.2-1.3,0.7-2.1,1.4
			c-0.7,0.7-1.2,1.4-1.3,2c-2.5-1.7-3.8-3.7-3.8-6.1c0-1.9,0.7-3.3,2.2-4.4c1.3-1,3-1.4,5-1.4h4.9c2.4,0,3.5-1.1,3.5-3.2v-1.7h3.5
			v1.6c0,2-0.6,3.5-1.9,4.5c-1.3,1.1-3,1.6-5,1.6h-5.3c-0.8,0-1.5,0.3-2.1,0.8c-0.6,0.5-0.9,1.2-0.9,2c0,0.8,0.1,1.4,0.4,1.9
			c0.7-1.1,1.8-1.7,3.2-1.8c1.1,0.7,2.4,1.3,4,1.9c0-1,0.4-1.8,1.1-2.4c0.7-0.7,1.6-1,2.5-1c1.1,0,1.9,0.4,2.7,1.1
			C359.4,122.6,359.8,123.5,359.8,124.5z M357.6,124.5c0-0.4-0.2-0.8-0.5-1.1c-0.3-0.3-0.7-0.5-1.1-0.5c-0.4,0-0.8,0.2-1.1,0.5
			c-0.3,0.3-0.5,0.7-0.5,1.1c0,0.4,0.2,0.8,0.5,1.1c0.3,0.3,0.7,0.5,1.1,0.5c0.4,0,0.8-0.2,1.1-0.5
			C357.5,125.3,357.6,124.9,357.6,124.5z"/>
		<path class="st2" d="M391.8,148.4c0,1.9-0.5,3.2-1.5,4c1.9,1,2.8,2.6,2.8,4.8c0,1.5-0.5,2.8-1.6,3.9c-1.1,1-2.3,1.6-3.8,1.6
			c-1.4,0-2.6-0.4-3.6-1.3s-1.6-2-1.8-3.3c-1.5,0.8-2.6,1.3-3.3,1.7c-1.2,0.7-2.1,1.5-2.7,2.4h-4.5v-18.5c-0.5,0.1-0.9,0.1-1.2,0.1
			c-1.5,0-2.8-0.5-3.9-1.6c-1.1-1.1-1.6-2.4-1.6-3.9c0-1.5,0.5-2.8,1.6-3.8c1.1-1.1,2.4-1.6,3.9-1.6c1.6,0,3,0.6,4.1,1.7
			c1.1,1.1,1.6,2.5,1.6,4.2v18.3c0.8-0.6,2.5-1.4,5.2-2.5c2.4-1,4.1-2,5-3c0.7-0.7,1-1.9,1-3.5v-14.5h4.5V148.4z M373,138.2
			c0-0.7-0.2-1.2-0.7-1.7c-0.5-0.5-1.1-0.7-1.7-0.7c-0.7,0-1.2,0.2-1.7,0.7c-0.5,0.5-0.7,1.1-0.7,1.7c0,0.7,0.2,1.2,0.7,1.7
			c0.5,0.5,1.1,0.7,1.7,0.7c0.7,0,1.2-0.2,1.7-0.7C372.7,139.4,373,138.9,373,138.2z M390.1,157.2c0-0.7-0.2-1.2-0.7-1.7
			c-0.5-0.5-1.1-0.7-1.7-0.7c-0.7,0-1.3,0.2-1.7,0.7c-0.5,0.5-0.7,1-0.7,1.7c0,0.7,0.2,1.2,0.7,1.7c0.5,0.5,1.1,0.7,1.7,0.7
			c0.7,0,1.2-0.2,1.7-0.7S390.1,157.8,390.1,157.2z"/>
	</g>
</g>
<g id="Layer_1_copy">
	<g>
		<rect x="18" y="39.3" class="st1" width="497.3" height="146"/>
		<path class="st0" d="M35.9,70.7c0,1.5-0.5,2.8-1.6,3.9c-1.1,1.1-2.4,1.6-3.9,1.6c-1.6,0-3-0.6-4.1-1.7c-1.1-1.1-1.7-2.5-1.7-4.2
			V41.8c-0.2-1.6-1.4-3-3.6-4c-1.8-0.8-3.6-1.2-5.4-1.2c0.2-5.5,2.7-8.2,7.3-8.2c1.2,0,2.7,0.4,4.2,1.2c1.6,0.8,2.7,1.2,3.3,1.2
			c0.5,0,1.1-0.7,1.6-2.2l3.3,0.9c-0.9,3.3-2.4,4.9-4.3,4.9c-0.9,0-2.2-0.4-3.9-1.2C25.5,32.4,24.1,32,23,32c-1.7,0-2.8,0.6-3.3,1.8
			c6.3,1.6,9.4,4.4,9.4,8.4v23.3c0.2-0.1,0.7-0.1,1.3-0.1c1.5,0,2.8,0.5,3.9,1.6C35.3,67.9,35.9,69.2,35.9,70.7z M32.8,70.7
			c0-0.7-0.2-1.2-0.7-1.7c-0.5-0.5-1.1-0.7-1.7-0.7c-0.7,0-1.2,0.2-1.7,0.7c-0.5,0.5-0.7,1.1-0.7,1.7c0,0.7,0.2,1.2,0.7,1.7
			c0.5,0.5,1.1,0.7,1.7,0.7c0.7,0,1.2-0.2,1.7-0.7C32.6,72,32.8,71.4,32.8,70.7z"/>
		<path class="st0" d="M61.2,75.6h-4.5V63.2c0-1.4-0.8-2.5-2.4-3.3C53,59.3,51.6,59,50.1,59c-1.5,0-2.8,0.4-3.8,1.1
			c-1.3,0.9-1.9,2-1.9,3.5v1.8c0.4-0.1,0.8-0.1,1.3-0.1c1.5,0,2.9,0.5,4,1.6c1.1,1.1,1.7,2.4,1.7,3.9c0,1.5-0.6,2.8-1.7,3.9
			c-1.2,1.1-2.5,1.6-4,1.6c-1.6,0-2.9-0.5-4-1.5c-1.1-1-1.7-2.3-1.7-3.9V64c0-2.8,1.1-5,3.2-6.6c1.9-1.4,4.2-2.1,7-2.1
			c3,0,5.2,0.8,6.7,2.4v-3.2c0-1.5-0.9-2.6-2.6-3.4c-1.3-0.6-2.9-0.9-4.5-0.9c-1.9,0-3.5,0.4-4.8,1.3c-1.5,0.9-2.4,2.2-2.7,3.8h-4.3
			c0.3-2.9,1.6-5.2,3.8-6.8c2.1-1.5,4.8-2.2,8.1-2.2c3,0,5.5,0.7,7.7,2.1c2.5,1.6,3.7,3.8,3.7,6.6V75.6z M48.1,70.7
			c0-0.7-0.2-1.2-0.7-1.7c-0.5-0.5-1.1-0.7-1.7-0.7c-0.7,0-1.2,0.2-1.7,0.7c-0.5,0.5-0.7,1.1-0.7,1.7c0,0.7,0.2,1.2,0.7,1.7
			c0.5,0.5,1.1,0.7,1.7,0.7c0.7,0,1.2-0.2,1.7-0.7C47.9,71.9,48.1,71.3,48.1,70.7z"/>
		<path class="st0" d="M82.7,70.7c0,1.5-0.5,2.8-1.6,3.9c-1.1,1.1-2.4,1.6-3.9,1.6c-1.6,0-3-0.6-4.1-1.7c-1.1-1.1-1.7-2.5-1.7-4.2
			V41.8c-0.2-1.6-1.4-3-3.6-4c-1.8-0.8-3.6-1.2-5.4-1.2c0.2-5.5,2.7-8.2,7.3-8.2c1.2,0,2.7,0.4,4.2,1.2c1.6,0.8,2.7,1.2,3.3,1.2
			c0.5,0,1.1-0.7,1.6-2.2l3.3,0.9c-0.9,3.3-2.4,4.9-4.3,4.9c-0.9,0-2.2-0.4-3.9-1.2c-1.7-0.8-3.1-1.2-4.2-1.2
			c-1.7,0-2.8,0.6-3.3,1.8c6.3,1.6,9.4,4.4,9.4,8.4v23.3c0.2-0.1,0.7-0.1,1.3-0.1c1.5,0,2.8,0.5,3.9,1.6
			C82.2,67.9,82.7,69.2,82.7,70.7z M79.7,70.7c0-0.7-0.2-1.2-0.7-1.7c-0.5-0.5-1.1-0.7-1.7-0.7c-0.7,0-1.2,0.2-1.7,0.7
			c-0.5,0.5-0.7,1.1-0.7,1.7c0,0.7,0.2,1.2,0.7,1.7c0.5,0.5,1.1,0.7,1.7,0.7c0.7,0,1.2-0.2,1.7-0.7C79.5,72,79.7,71.4,79.7,70.7z"/>
		<path class="st0" d="M107.5,75.6H103v-19c0-2-0.6-3.5-1.8-4.7c-1.2-1.1-2.8-1.7-4.8-1.7c-2.9,0-5.1,1.2-6.6,3.6
			c2.3,0.4,3.9,1.5,4.8,3.2c-2.4,1.4-3.7,3.2-3.7,5.2v13.4h-4.5V61.9c0-2,1-3.6,3-4.8c-1.2-0.8-2.7-1.1-4.4-0.9
			c0.1-3,1.2-5.4,3.5-7.3c2-1.8,4.6-2.7,7.7-2.7c3.5,0,6.2,0.9,8.2,2.8c2,1.8,3,4.4,3,7.5V75.6z"/>
		<path class="st0" d="M111.9,29.8c-0.5,2.5-1.2,4.7-2,6.4c-0.9,1.7-2,3.1-3.3,4.1c-1.3,1-2.9,1.8-4.7,2.2c-1.8,0.4-3.9,0.6-6.2,0.6
			h-2.4v-2.9c1,0,1.8-0.4,2.4-1c0.6-0.6,1.1-1.2,1.3-1.9c-1.2-0.2-2.1-0.7-2.8-1.6c-0.7-0.9-1-1.9-1-3.2c0-1.3,0.5-2.4,1.4-3.2
			c0.9-0.9,2-1.3,3.3-1.3c1.4,0,2.6,0.5,3.4,1.4c0.8,0.9,1.2,2.1,1.2,3.5c0,1.4-0.3,2.7-1,4c-0.7,1.3-1.4,2.3-2.1,3
			c2.4-0.4,4.4-1.6,5.9-3.5c1.5-1.9,2.3-4.1,2.4-6.7H111.9z M99.6,32.8c0-0.5-0.2-1-0.5-1.3c-0.4-0.4-0.8-0.5-1.3-0.5
			c-0.5,0-1,0.2-1.3,0.5c-0.3,0.4-0.5,0.8-0.5,1.3c0,0.5,0.2,1,0.5,1.3c0.3,0.4,0.8,0.5,1.3,0.5c0.5,0,1-0.2,1.3-0.5
			C99.4,33.8,99.6,33.3,99.6,32.8z"/>
		<path class="st0" d="M130.7,70.8c0,1.5-0.5,2.8-1.6,3.9c-1.1,1-2.4,1.5-3.9,1.5c-1.5,0-2.8-0.5-3.9-1.6c-1.1-1.1-1.6-2.4-1.6-3.9
			c0-1.5,0.5-2.8,1.6-3.9c1.1-1.1,2.4-1.6,3.9-1.6c0.6,0,0.9,0,1.1,0.1v-6.2c0-0.8-1.6-1.5-4.8-2.3c-3.2-0.7-6.1-1.3-8.7-1.8
			c0.1-2.6,0.8-4.8,2.1-6.4c1.3-1.6,3.2-2.4,5.6-2.4c1,0,2.4,0.2,4.1,0.7c1.8,0.5,3,0.7,3.8,0.7c0.8,0,1.3-0.5,1.4-1.6l3.5,0.9
			c-0.9,2.9-2.4,4.4-4.8,4.4c-0.9,0-2.1-0.2-3.7-0.6c-1.6-0.4-2.8-0.6-3.6-0.6c-2.1,0-3.3,0.8-3.6,2.4c3.7,0.8,6.8,1.6,9.3,2.4
			c2.5,0.9,3.8,2.4,3.8,4.5V70.8z M127.6,70.7c0-0.7-0.2-1.2-0.7-1.7c-0.5-0.5-1.1-0.7-1.8-0.7s-1.3,0.2-1.8,0.7
			c-0.5,0.5-0.7,1.1-0.7,1.7c0,0.7,0.2,1.2,0.7,1.7c0.5,0.5,1.1,0.7,1.8,0.7s1.3-0.2,1.8-0.7C127.3,72,127.6,71.4,127.6,70.7z"/>
		<path class="st0" d="M131.2,88.7c0,1.6-0.7,2.8-2,3.6c-1.2,0.7-2.7,1.1-4.5,1.1c-1.6,0-3-0.3-4.2-1c-1.3-0.8-2-1.8-2-3.2v-2.2
			h-0.4c-1.2,0-2.2-0.4-3.1-1.3c-0.8-0.8-1.3-1.8-1.3-3c0-1.2,0.4-2.2,1.3-3.1c0.8-0.9,1.9-1.3,3.1-1.3c1.2,0,2.3,0.4,3.2,1.2
			c0.9,0.8,1.4,1.8,1.4,3.2v6.5c0,0.7,0.7,1.1,2.2,1.1c1.5,0,2.3-0.4,2.3-1.1V79.1h4.2V88.7z M120,82.6c0-0.5-0.2-1-0.6-1.4
			c-0.4-0.4-0.8-0.6-1.4-0.6c-0.5,0-1,0.2-1.4,0.6c-0.4,0.4-0.6,0.8-0.6,1.4c0,0.5,0.2,1,0.6,1.4c0.4,0.4,0.9,0.6,1.4,0.6
			c0.5,0,1-0.2,1.4-0.6C119.8,83.6,120,83.1,120,82.6z"/>
		<path class="st0" d="M163.2,69.1c0,4.7-3.5,7.1-10.4,7.1c-7,0-10.5-2.4-10.5-7.1v-12c-0.5,0.1-0.9,0.1-1.2,0.1
			c-1.5,0-2.8-0.5-3.9-1.6c-1.1-1.1-1.6-2.4-1.6-3.9c0-1.5,0.5-2.8,1.6-3.8c1.1-1.1,2.4-1.6,3.9-1.6c1.6,0,3,0.6,4.1,1.7
			c1.1,1.1,1.6,2.5,1.6,4.2v17c0,1,0.6,1.7,1.9,2.3c1.3,0.6,2.7,0.9,4.1,0.9c1.4,0,2.7-0.3,4-0.9c1.3-0.6,1.9-1.3,1.9-2.3V35.4h4.5
			V69.1z M143.5,51.8c0-0.7-0.2-1.2-0.7-1.7c-0.5-0.5-1.1-0.7-1.7-0.7c-0.7,0-1.2,0.2-1.7,0.7c-0.5,0.5-0.7,1.1-0.7,1.7
			c0,0.7,0.2,1.2,0.7,1.7c0.5,0.5,1.1,0.7,1.7,0.7c0.7,0,1.2-0.2,1.7-0.7C143.3,53,143.5,52.5,143.5,51.8z"/>
		<path class="st0" d="M186,70.7c0,1.5-0.5,2.8-1.6,3.9c-1.1,1.1-2.4,1.6-3.9,1.6c-1.6,0-3-0.6-4.1-1.7c-1.1-1.1-1.7-2.5-1.7-4.2
			V43.2c0-1.1,0.4-2.6,1.3-4.4c0.8-1.8,1.3-3.2,1.3-4.1c0-1.1-0.4-1.9-1.1-2.5c-0.7-0.6-1.6-0.9-2.7-0.9c-1.6,0-2.8,0.3-3.6,0.9
			c1.2,0,2.2,0.5,3,1.4c0.7,0.8,1,1.8,1,2.9c0,1.3-0.5,2.4-1.4,3.3c-0.9,0.9-2,1.4-3.4,1.4c-1.4,0-2.5-0.5-3.4-1.5
			c-0.9-1-1.3-2.2-1.3-3.5c0-2.6,0.9-4.6,2.6-6c1.6-1.3,3.7-1.9,6.3-1.9c2.1,0,4,0.6,5.5,1.7c1.8,1.2,2.7,2.9,2.7,4.8
			c0,1.1-0.4,2.7-1.2,4.6c-0.8,2-1.2,3.5-1.2,4.5v21.6c0.2-0.1,0.7-0.1,1.3-0.1c1.5,0,2.8,0.5,3.9,1.6C185.4,67.9,186,69.2,186,70.7
			z M171.4,36.5c0-0.6-0.2-1.2-0.6-1.6c-0.4-0.4-1-0.6-1.6-0.6c-0.6,0-1.2,0.2-1.6,0.6c-0.4,0.4-0.6,1-0.6,1.6
			c0,0.6,0.2,1.2,0.6,1.6c0.4,0.4,1,0.6,1.6,0.6c0.6,0,1.2-0.2,1.6-0.6C171.1,37.7,171.4,37.1,171.4,36.5z M182.9,70.7
			c0-0.7-0.2-1.2-0.7-1.7c-0.5-0.5-1.1-0.7-1.7-0.7c-0.7,0-1.2,0.2-1.7,0.7c-0.5,0.5-0.7,1.1-0.7,1.7c0,0.7,0.2,1.2,0.7,1.7
			c0.5,0.5,1.1,0.7,1.7,0.7c0.7,0,1.2-0.2,1.7-0.7C182.7,72,182.9,71.4,182.9,70.7z"/>
		<path class="st0" d="M214.1,75.6h-4.5v-16c0-1.3-0.3-1.9-0.8-1.9c-0.4,0-0.9,0.6-1.7,1.8l-9.4,16.1h-4.2V57.1
			c-0.5,0.1-0.9,0.1-1.2,0.1c-1.5,0-2.8-0.5-3.9-1.6c-1.1-1.1-1.6-2.4-1.6-3.9c0-1.5,0.5-2.8,1.6-3.8c1.1-1.1,2.4-1.6,3.9-1.6
			c1.6,0,3,0.6,4.1,1.7c1.1,1.1,1.6,2.5,1.6,4.2v10.7c0,1.2-0.3,3.8-0.9,7.6c0.5-2.1,1.2-4,2.2-5.7l4-6.8c0.9-1.4,1.6-2.3,2.3-2.4
			c-1-1.2-1.4-2.4-1.4-3.7c0-1.5,0.5-2.8,1.6-3.9c1.1-1.1,2.4-1.6,3.9-1.6c1.5,0,2.8,0.5,3.9,1.6c1.1,1.1,1.6,2.4,1.6,3.9
			c0,1.6-0.7,3-2,4.2c0.6,1.2,0.9,2.5,0.9,3.9V75.6z M194.9,51.8c0-0.7-0.2-1.2-0.7-1.7c-0.5-0.5-1.1-0.7-1.7-0.7
			c-0.7,0-1.2,0.2-1.7,0.7c-0.5,0.5-0.7,1.1-0.7,1.7c0,0.7,0.2,1.2,0.7,1.7c0.5,0.5,1.1,0.7,1.7,0.7c0.7,0,1.2-0.2,1.7-0.7
			C194.7,53,194.9,52.5,194.9,51.8z M212.2,51.8c0-0.7-0.2-1.2-0.7-1.7c-0.5-0.5-1.1-0.7-1.7-0.7c-0.7,0-1.2,0.2-1.7,0.7
			c-0.5,0.5-0.7,1.1-0.7,1.7c0,0.7,0.2,1.2,0.7,1.7c0.5,0.5,1.1,0.7,1.7,0.7c0.7,0,1.2-0.2,1.7-0.7C211.9,53,212.2,52.5,212.2,51.8z
			"/>
		<path class="st0" d="M254.8,68.9c0,2.4-0.9,4.3-2.8,5.6c-1.6,1.2-3.7,1.7-6.1,1.7c-2.5,0-4.5-0.6-6-1.7c-1.8-1.3-2.7-3.2-2.7-5.6
			V56.5c0-1.9-0.6-3.4-1.8-4.6c-1.2-1.2-2.6-1.8-4.4-1.8c-2.9,0-5,1.2-6.3,3.6c2.1,0.4,3.6,1.5,4.8,3.2c-2.4,1.3-3.7,3.1-3.7,5.2
			v3.4c0.3-0.2,0.8-0.3,1.4-0.3c1.5,0,2.7,0.5,3.8,1.5c1,1,1.5,2.3,1.5,3.9c0,1.5-0.5,2.8-1.6,3.9c-1.1,1.1-2.4,1.6-3.9,1.6
			c-1.6,0-2.9-0.6-4-1.7c-1.1-1.1-1.7-2.5-1.7-4.2v-8.4c0-2,1-3.6,3-4.8c-1.2-0.8-2.7-1.1-4.4-0.9c0.1-3,1.2-5.4,3.3-7.3
			c2-1.8,4.5-2.7,7.6-2.7c3.2,0,5.8,0.9,7.8,2.7c2,1.8,3,4.3,3,7.5v12.9c0,1,0.4,1.7,1.3,2.2c0.9,0.5,1.9,0.7,3,0.7
			c1.1,0,2.1-0.2,3-0.7c0.9-0.5,1.4-1.2,1.4-2.2V46.9h4.5V68.9z M229.7,70.8c0-0.7-0.2-1.2-0.7-1.7c-0.5-0.5-1.1-0.7-1.7-0.7
			c-0.7,0-1.2,0.2-1.7,0.7c-0.5,0.5-0.7,1-0.7,1.7c0,0.7,0.2,1.2,0.7,1.7c0.5,0.5,1.1,0.7,1.7,0.7c0.7,0,1.2-0.2,1.7-0.7
			C229.4,72,229.7,71.4,229.7,70.8z M255.2,78.5c0,3.6-0.8,6.4-2.4,8.5c-1.8,2.4-4.5,3.5-8.1,3.5c-2.4,0-4.4-0.6-6-1.8
			c-1.9-1.4-2.9-3.2-2.9-5.5c0-1.4,0.5-2.7,1.5-3.6c1-1,2.2-1.5,3.6-1.5c1.4,0,2.6,0.5,3.5,1.5c0.9,1,1.4,2.2,1.4,3.7
			c0,1.9-0.7,3.1-2.2,3.6c0.7,0.1,1.1,0.1,1.4,0.1c4,0,6.2-2.9,6.4-8.6H255.2z M243.1,83.2c0-0.6-0.2-1.2-0.6-1.6
			c-0.4-0.4-1-0.6-1.7-0.6c-0.7,0-1.2,0.2-1.6,0.6c-0.4,0.4-0.6,1-0.6,1.6c0,0.6,0.2,1.2,0.6,1.6c0.4,0.5,0.9,0.7,1.6,0.7
			c0.7,0,1.2-0.2,1.7-0.7C242.9,84.3,243.1,83.8,243.1,83.2z"/>
		<path class="st0" d="M254.8,42.2h-4.5V32.1h4.5V42.2z"/>
		<path class="st0" d="M285.9,85.7h-4.5V54.8c0-2-0.9-3.6-2.8-4.8l-3.3,2.6l-4.2-2.7c-0.8,0.5-1.4,1.3-1.7,2.2h0.5
			c1.5,0,2.8,0.5,3.9,1.6c1.1,1.1,1.6,2.4,1.6,3.9c0,1.5-0.5,2.8-1.6,3.9c-1.1,1.1-2.4,1.6-3.9,1.6c-1.9,0-3.4-0.7-4.5-2.2
			c-1.1-1.5-1.7-3.2-1.7-5.2c0-2.4,0.8-4.5,2.3-6.4c1.5-1.8,3.4-3.1,5.8-3.6l3.5,2.7l3.1-2.7c2.3,0.6,4.2,1.6,5.5,3.2
			c1.4,1.6,2.1,3.4,2.1,5.7V85.7z M272.4,57.8c0-0.7-0.3-1.3-0.8-1.9c-0.5-0.5-1.2-0.8-1.9-0.8c-0.7,0-1.3,0.3-1.9,0.8
			c-0.5,0.5-0.8,1.2-0.8,1.9c0,0.7,0.3,1.3,0.8,1.9c0.5,0.5,1.2,0.8,1.9,0.8c0.7,0,1.3-0.3,1.9-0.8
			C272.1,59.1,272.4,58.5,272.4,57.8z"/>
	</g>
	<g>
	</g>
	<g>
	</g>
	<g>
	</g>
	<g>
	</g>
	<g>
	</g>
	<g>
	</g>
</g>
</svg>
