<?xml version="1.0" encoding="utf-8"?>
<!-- Generator: Adobe Illustrator 16.0.0, SVG Export Plug-In . SVG Version: 6.00 Build 0)  -->
<!DOCTYPE svg PUBLIC "-//W3C//DTD SVG 1.1//EN" "http://www.w3.org/Graphics/SVG/1.1/DTD/svg11.dtd">
<svg version="1.1" id="Layer_1" xmlns="http://www.w3.org/2000/svg" xmlns:xlink="http://www.w3.org/1999/xlink" x="0px" y="0px"
	 width="500px" height="116px" viewBox="155.974 58.987 500 116" enable-background="new 155.974 58.987 500 116"
	 xml:space="preserve">
<g id="Layer_2" display="none">
	<g display="inline">
		<path fill="none" d="M93.896,195.976c0-63.659,0.035-127.317-0.098-190.977c-0.007-3.424,0.673-4.105,4.098-4.097
			C151.221,1.042,204.548,1,257.875,1c-2.18,1.292-4.36,2.582-6.539,3.878c-8.428,5.02-10.21,14.417-7.883,20.921
			c3.305,9.233,11.803,14.6,20.304,14.027c7.109-0.479,12.917-4.701,15.646-11.217c2.798-6.682,2.515-13.604-2.242-19.988
			c-2.981-4.004-7.239-5.519-11.287-7.621c30.329,0,60.659,0.035,90.988-0.063c2.5-0.009,3.065,0.564,3.063,3.063
			c-0.078,69.324-0.078,138.65,0,207.975c0.003,2.499-0.563,3.063-3.063,3.062c-86.655-0.075-173.311-0.075-259.967,0
			c-2.498,0.002-3.321-0.543-3.052-3.066c0.245-2.308,0.052-4.661,0.052-6.993c0.688,0.858,1.309,1.783,2.075,2.565
			c2.462,2.52,7.534,3.396,11.021,1.807c3.73-1.7,5.922-4.448,5.938-8.803c0.014-4.333-2.049-7.145-5.825-8.86
			C102.77,189.714,97.436,191.479,93.896,195.976z M305.499,96.461c0.021-0.156,0.042-0.314,0.063-0.474
			c1.167,0,2.333,0.014,3.499-0.002c5.245-0.073,7.928-2.242,8.567-6.912c0.57-4.17-1.577-7.798-5.987-8.979
			c-3.909-1.048-7.976-1.656-12.011-2.059c-8.675-0.864-16.854-2.906-22.858-9.727c-4.766-5.413-9.335-11.023-13.65-16.801
			c-6.068-8.127-14.146-11.364-23.681-9.334c-8.282,1.766-16.624,3.245-24.948,4.804c-2.729,0.511-5.521,0.719-8.224,1.33
			c-14.144,3.197-14.663,8.829-16.362,19.699c-2.4,15.363-7.225,29.733-16.798,42.211c-3.644,4.746-4.781,4.842-9.552,0.914
			c-4.772-3.93-10.2-6.265-16.287-7.125c-8.5-1.2-12.471,1.646-14.523,10.314c-0.374,1.58-0.871,3.133-1.359,4.684
			c-5.821,18.452-11.833,36.849-17.388,55.382c-2.1,7.005-2.483,14.144,2.366,20.689c1.448,1.954,2.202,4.74,2.411,7.219
			c0.313,3.732,2.059,5.829,5.539,6.382c12.719,2.018,13.39,3.878,16.697-9.523c3.739-15.155,8.108-30.107,14.448-44.486
			c8.063-18.289,17.729-35.637,28.724-52.275c1.873-2.835,4.586-4.969,8.32-4.369c6.295,1.01,9.645-2.304,11.347-10.038
			c1.188-5.4,1.74-10.967,3.269-16.26c1.596-5.534,8.167-8.161,12.65-5.794c2.039,1.075,2.494,2.172,1.48,4.343
			c-2.271,4.87-4.378,9.823-6.364,14.815c-3.801,9.549-8.479,18.835-7.163,29.729c0.303,2.508-0.977,5.476-2.235,7.854
			c-5.192,9.809-10.65,19.476-16.023,29.187c-8.297,14.995-16.579,29.998-24.919,44.97c-3.197,5.738-1.631,11.421,4.142,14.487
			c5.896,3.133,10.383,2.1,14.106-4.26c9.812-16.747,19.324-33.671,28.9-50.556c4.504-7.94,8.833-15.98,13.346-23.918
			c1.301-2.288,2.782-3.442,5.287-0.763c5.162,5.523,11.271,10.269,15.831,16.222c5.521,7.207,10.482,15.014,14.523,23.14
			c5.354,10.768,9.45,22.153,14.396,33.136c1.142,2.531,3.306,4.75,5.406,6.667c3.87,3.53,7.206,3.938,10.682,1.886
			c3.898-2.305,6.165-7.257,4.714-11.658c-1.93-5.849-4.179-11.607-6.586-17.281c-4.009-9.448-8.426-18.728-12.343-28.213
			c-3.414-8.27-7.826-15.77-14.034-22.276c-4.079-4.275-7.742-8.946-11.568-13.459c-5.021-5.922-4.779-12.448-1.865-19.082
			c2.626-5.978,5.512-11.841,8.369-17.713c2.638-5.424,3.816-5.535,7.809-0.88c0.521,0.606,0.801,1.417,1.306,2.042
			c3.037,3.752,6.457,7.384,11.295,8.256C287.279,94.229,296.413,95.212,305.499,96.461z M344.104,56.373
			c-0.477,0.213-1.297,0.418-1.921,0.885c-5.585,4.173-11.178,8.337-16.677,12.62c-2.476,1.93-4.729,4.141-7.108,6.192
			c-0.987,0.852-1.979,1.074,0.098,2.307c3.515,2.084,6.482,5.068,9.85,7.436c0.719,0.506,2.453,0.416,3.214-0.118
			c8.327-5.848,16.556-11.834,24.805-17.793c2.163-1.563,1.815-2.754-0.448-3.948c-1.698-0.896-3.19-2.176-4.816-3.22
			C348.797,59.254,346.457,57.836,344.104,56.373z"/>
		<path fill="#F5FE00" d="M265.874,1c4.048,2.103,8.306,3.617,11.287,7.621c4.757,6.384,5.04,13.307,2.242,19.988
			c-2.729,6.517-8.537,10.739-15.646,11.217c-8.5,0.572-16.999-4.793-20.304-14.027c-2.328-6.504-0.545-15.901,7.883-20.921
			c2.179-1.297,4.359-2.586,6.539-3.878C260.541,1,263.208,1,265.874,1z"/>
		<path fill="#F5FE00" d="M93.896,195.976c3.54-4.496,8.875-6.263,13.209-4.292c3.776,1.717,5.839,4.527,5.825,8.86
			c-0.015,4.354-2.206,7.103-5.938,8.803c-3.488,1.59-8.56,0.713-11.021-1.807c-0.767-0.783-1.388-1.707-2.075-2.565
			C93.896,201.975,93.896,198.975,93.896,195.976z"/>
		<path fill="#F5FE00" d="M305.499,96.461c-9.086-1.25-18.22-2.231-27.237-3.857c-4.839-0.872-8.258-4.503-11.295-8.256
			c-0.505-0.624-0.785-1.435-1.306-2.042c-3.992-4.655-5.171-4.544-7.809,0.88c-2.857,5.872-5.743,11.736-8.369,17.713
			c-2.915,6.634-3.157,13.16,1.865,19.082c3.826,4.513,7.489,9.184,11.568,13.459c6.208,6.508,10.621,14.008,14.034,22.275
			c3.917,9.486,8.334,18.766,12.343,28.214c2.407,5.674,4.656,11.434,6.586,17.281c1.451,4.401-0.814,9.354-4.714,11.658
			c-3.476,2.054-6.812,1.646-10.682-1.886c-2.102-1.917-4.267-4.136-5.406-6.667c-4.946-10.981-9.042-22.368-14.396-33.136
			c-4.041-8.126-9.003-15.933-14.523-23.14c-4.56-5.953-10.669-10.697-15.831-16.222c-2.505-2.681-3.986-1.525-5.287,0.763
			c-4.513,7.938-8.842,15.978-13.346,23.918c-9.576,16.884-19.089,33.809-28.9,50.556c-3.724,6.358-8.209,7.393-14.106,4.26
			c-5.772-3.066-7.339-8.749-4.142-14.487c8.339-14.972,16.623-29.975,24.919-44.97c5.373-9.711,10.831-19.378,16.023-29.187
			c1.26-2.38,2.538-5.348,2.235-7.854c-1.317-10.894,3.361-20.181,7.163-29.729c1.986-4.993,4.094-9.946,6.364-14.815
			c1.013-2.171,0.559-3.268-1.48-4.343c-4.483-2.367-11.055,0.261-12.65,5.794c-1.528,5.293-2.081,10.859-3.269,16.26
			c-1.702,7.733-5.052,11.048-11.347,10.038c-3.734-0.601-6.447,1.534-8.32,4.369c-10.994,16.64-20.659,33.986-28.724,52.275
			c-6.339,14.379-10.708,29.331-14.448,44.486c-3.308,13.401-3.979,11.541-16.697,9.522c-3.48-0.552-5.226-2.647-5.539-6.381
			c-0.208-2.479-0.963-5.265-2.411-7.219c-4.851-6.547-4.466-13.686-2.366-20.689c5.555-18.533,11.566-36.93,17.388-55.382
			c0.488-1.551,0.985-3.104,1.359-4.684c2.053-8.669,6.023-11.515,14.523-10.314c6.087,0.86,11.515,3.196,16.287,7.125
			c4.771,3.928,5.908,3.832,9.552-0.915c9.574-12.477,14.397-26.847,16.798-42.21c1.699-10.87,2.219-16.502,16.362-19.699
			c2.703-0.611,5.495-0.819,8.224-1.33c8.324-1.56,16.667-3.039,24.948-4.804c9.534-2.03,17.612,1.207,23.681,9.334
			c4.314,5.777,8.885,11.388,13.65,16.801c6.005,6.82,14.185,8.861,22.858,9.727c4.035,0.402,8.102,1.011,12.011,2.058
			c4.41,1.182,6.559,4.809,5.987,8.979c-0.641,4.67-3.322,6.839-8.567,6.912c-1.166,0.016-2.332,0.002-3.499,0.002
			C305.541,96.146,305.521,96.304,305.499,96.461z"/>
		<path fill="#040402" d="M344.104,56.373c2.354,1.463,4.692,2.881,6.993,4.359c1.626,1.044,3.118,2.322,4.816,3.22
			c2.265,1.194,2.611,2.384,0.448,3.948c-8.249,5.959-16.478,11.946-24.805,17.793c-0.761,0.534-2.495,0.624-3.214,0.118
			c-3.366-2.367-6.335-5.351-9.85-7.436c-2.077-1.231-1.085-1.455-0.098-2.307c2.381-2.052,4.634-4.264,7.108-6.192
			c5.499-4.283,11.092-8.446,16.677-12.62C342.807,56.792,343.628,56.586,344.104,56.373z M354.067,66.145
			c-0.664-0.527-1.112-0.93-1.604-1.266c-2.037-1.391-4.227-2.601-6.091-4.193c-1.559-1.333-2.438-1.133-4.013,0.092
			c-3.363,2.621-7.02,4.865-10.562,7.256c-8.15,5.501-8.092,5.417,0.059,11.42c1.824,1.342,2.926,1.292,4.603-0.024
			c5.19-4.079,10.494-8.013,15.76-11.997C352.719,67.056,353.245,66.717,354.067,66.145z"/>
		<path fill="#B9F1FA" d="M354.067,66.145c-0.822,0.571-1.35,0.911-1.849,1.288c-5.266,3.984-10.568,7.918-15.759,11.997
			c-1.678,1.316-2.778,1.367-4.604,0.024c-8.149-6.003-8.209-5.919-0.059-11.42c3.542-2.392,7.197-4.635,10.562-7.256
			c1.574-1.225,2.454-1.424,4.013-0.092c1.864,1.593,4.054,2.803,6.091,4.193C352.955,65.216,353.403,65.618,354.067,66.145z"/>
	</g>
</g>
<g>
	<g id="Layer_1_1_">
		<rect x="156.545" y="85.203" fill="none" width="72.574" height="96.455"/>
		<text transform="matrix(1.0326 0 0 1 156.5461 155.9724)" fill="#403333" font-family="'ComicSansMS'" font-size="90.9647">i</text>
		<g>
			<path fill="#403333" d="M386.109,98.895c-1.957,0-3.424-1.11-4.403-3.332c-0.857-1.894-1.651-3.049-2.385-3.464
				c-0.642-0.325-2.233-0.489-4.77-0.489c-4.434,0-9.357,3.287-14.768,9.861c-7.339,8.824-11.007,17.188-11.007,25.095
				c0,3.819,1.268,7.106,3.807,9.859c2.598,2.844,5.733,4.266,9.402,4.266c3.149,0,6.314-0.785,9.495-2.354
				c1.772-0.889,4.494-2.635,8.163-5.242c1.743-1.243,3.058-1.864,3.945-1.864c1.313,0,2.415,0.481,3.302,1.444
				c0.886,0.963,1.33,2.036,1.33,3.219c0,1.334-0.581,2.503-1.742,3.509c-8.072,6.931-16.236,10.395-24.492,10.395
				c-6.329,0-11.68-2.354-16.052-7.063c-4.22-4.559-6.329-9.95-6.329-16.168c0-10.038,4.341-20.328,13.025-30.87
				c7.247-8.793,14.554-13.191,21.923-13.191c1.497,0,2.844,0.067,4.036,0.201c1.192,0.133,2.248,0.348,3.165,0.644
				c1.07-1.51,2.461-2.265,4.174-2.265c2.109,0,3.439,1.348,3.99,4.042c0.489,2.398,0.734,5.345,0.734,8.84
				c0,1.213-0.337,2.279-1.009,3.197C388.815,98.317,387.637,98.895,386.109,98.895z"/>
			<path fill="#403333" d="M434.266,151.662c-0.582,0-1.636-0.651-3.165-1.954c-1.376-1.215-2.401-2.295-3.073-3.242
				c-2.936,1.539-5.52,2.7-7.751,3.486c-2.232,0.783-4.098,1.178-5.596,1.178c-7.155,0-12.368-1.955-15.64-5.863
				c-3.089-3.672-4.632-9.298-4.632-16.879c0-7.166,2.546-13.296,7.637-18.389c5.091-5.091,11.167-7.64,18.231-7.64
				c2.66,0,5.641,0.668,8.943,1.999c4.158,1.659,6.238,3.658,6.238,5.996c0,0.8-0.307,1.511-0.917,2.132
				c-0.306,1.125-0.543,2.977-0.711,5.553c-0.169,2.576-0.268,5.878-0.298,9.903c-0.032,3.674,0.229,6.575,0.779,8.706
				c0.305,1.305,1.268,3.91,2.89,7.817c0.213,0.534,0.565,1.319,1.055,2.354l0.275,0.755c0,1.185-0.429,2.16-1.284,2.932
				C436.39,151.276,435.397,151.662,434.266,151.662z M424.727,120.791c0-1.272,0.083-2.656,0.252-4.152
				c0.167-1.495,0.419-3.087,0.756-4.774c-1.131-0.562-2.103-0.978-2.913-1.244s-1.46-0.399-1.949-0.399
				c-4.74,0-8.829,1.873-12.269,5.618c-3.439,3.746-5.159,8.062-5.159,12.947c0,4.857,0.886,8.498,2.66,10.927
				c1.772,2.428,4.433,3.643,7.98,3.643c2.936,0,5.427-0.519,7.476-1.554c1.101-0.563,2.644-1.688,4.632-3.377
				C425.215,130.579,424.727,124.7,424.727,120.791z"/>
			<path fill="#403333" d="M481.689,151.884c-2.63,0-4.113-1.393-4.448-4.175l-1.285-9.728c-0.429-3.465-0.642-6.707-0.642-9.729
				c0-0.828,0.053-2.235,0.161-4.22c0.106-1.983,0.16-3.391,0.16-4.22c0-6.396-1.223-9.595-3.669-9.595
				c-3.425,0-6.697,1.97-9.815,5.907c-2.813,3.584-5.015,8.115-6.604,13.593c-0.062,1.154-0.2,2.605-0.413,4.352
				c-0.184,1.481-0.275,2.917-0.275,4.309c0,0.889,0.091,2.222,0.275,3.996c0.184,1.779,0.275,3.109,0.275,3.999
				c0,1.333-0.421,2.413-1.262,3.242c-0.841,0.829-1.92,1.244-3.233,1.244c-1.347,0-2.431-0.414-3.257-1.244
				c-0.825-0.829-1.238-1.909-1.238-3.242c0-0.89-0.1-2.22-0.298-3.999c-0.199-1.774-0.298-3.107-0.298-3.996
				c0-3.049,0.221-7.277,0.665-12.682c0.442-5.403,0.665-9.63,0.665-12.68c0-0.948-0.054-2.355-0.161-4.221
				c-0.108-1.866-0.16-3.271-0.16-4.22c0-1.273,0.435-2.316,1.308-3.131c0.871-0.813,1.948-1.222,3.233-1.222
				c2.813,0,4.357,1.925,4.632,5.774l0.138,5.197c5.137-6.633,10.411-9.95,15.824-9.95c4.892,0,8.301,2.088,10.227,6.263
				c1.314,2.784,2.034,6.899,2.156,12.348v4.486l-0.046,4.131c0,2.458,0.328,5.635,0.986,9.527c0.657,3.893,0.987,7.057,0.987,9.483
				c0,1.304-0.437,2.36-1.308,3.176C484.097,151.475,483.004,151.884,481.689,151.884z"/>
			<path fill="#403333" d="M576.995,121.858c-1.897,9.091-5.88,16.353-11.947,21.785c-6.07,5.433-13.232,8.151-21.488,8.151
				c-7.521,0-13.163-2.036-16.924-6.107s-5.642-10.178-5.642-18.322c0-7.669,1.873-15.568,5.619-23.696
				c3.744-8.128,8.553-14.694,14.424-19.699c3.914-3.346,8.057-5.019,12.43-5.019c2.782,0,6.451,0.889,11.007,2.665
				c5.564,2.133,8.348,4.486,8.348,7.063c0,1.214-0.459,2.295-1.376,3.242c-0.918,0.948-2.019,1.422-3.303,1.422
				c-0.673,0-1.621-0.371-2.843-1.111c-4.679-2.754-8.623-4.131-11.834-4.131c-2.293,0-4.693,1.155-7.2,3.465
				c-1.254,1.155-3.059,3.258-5.412,6.307c-7.063,9.061-10.594,18.893-10.594,29.492c0,5.568,0.886,9.461,2.66,11.682
				c1.925,2.43,5.472,3.644,10.639,3.644c5.474,0,10.229-1.674,14.264-5.021c4.25-3.553,7.216-8.631,8.898-15.234
				c-8.47,0.415-15.731,1.998-21.786,4.752c-0.703,0.327-1.392,0.489-2.063,0.489c-1.347,0-2.461-0.503-3.349-1.511
				c-0.825-0.916-1.238-1.982-1.238-3.198c0-1.627,0.81-2.93,2.431-3.908c6.604-3.907,17.994-5.862,34.169-5.862
				c1.314,0,2.415,0.431,3.302,1.288c0.887,0.859,1.33,1.94,1.33,3.243C579.516,119.652,578.676,121.029,576.995,121.858z"/>
			<path fill="#403333" d="M617.997,151.44c-8.622,0-15.931-2.504-21.923-7.507c-6.36-5.331-9.54-12.199-9.54-20.61
				c0-10.245,3.133-19.557,9.402-27.937c7.001-9.297,15.731-13.946,26.188-13.946c10.06,0,17.534,2.192,22.427,6.574
				c5.106,4.56,7.659,11.756,7.659,21.585c0,10.246-2.874,19.483-8.623,27.716C636.985,146.731,628.454,151.44,617.997,151.44z
				 M622.125,90.544c-7.491,0-13.836,3.613-19.034,10.838c-4.801,6.634-7.2,13.946-7.2,21.941c0,5.716,2.186,10.366,6.559,13.946
				c4.188,3.376,9.371,5.063,15.549,5.063c7.429,0,13.559-3.625,18.392-10.881c4.311-6.485,6.466-13.769,6.466-21.854
				c0-7.076-1.636-12.051-4.907-14.924C634.829,91.922,629.554,90.544,622.125,90.544z"/>
		</g>
	</g>
	<g id="Layer_1_copy">
		<rect x="158.183" y="80.443" fill="none" width="72.574" height="96.456"/>
		<text transform="matrix(1.0326 0 0 1 158.1843 151.2136)" fill="#0068FF" font-family="'ComicSansMS'" font-size="90.9647">i</text>
		<g>
			<g>
				<path fill="#0068FF" d="M387.338,95.668c-1.958,0-3.425-1.11-4.403-3.331c-0.857-1.896-1.652-3.05-2.385-3.466
					c-0.642-0.325-2.232-0.488-4.77-0.488c-4.434,0-9.357,3.288-14.768,9.861c-7.338,8.824-11.007,17.188-11.007,25.095
					c0,3.82,1.268,7.107,3.807,9.861c2.598,2.843,5.733,4.265,9.402,4.265c3.149,0,6.314-0.785,9.495-2.354
					c1.772-0.89,4.494-2.635,8.164-5.24c1.743-1.246,3.057-1.866,3.945-1.866c1.313,0,2.415,0.481,3.302,1.442
					c0.887,0.963,1.33,2.037,1.33,3.222c0,1.332-0.581,2.502-1.742,3.509c-8.072,6.929-16.236,10.393-24.492,10.393
					c-6.33,0-11.681-2.353-16.052-7.062c-4.22-4.561-6.33-9.951-6.33-16.168c0-10.038,4.341-20.328,13.025-30.869
					c7.248-8.795,14.554-13.192,21.924-13.192c1.497,0,2.843,0.067,4.036,0.2c1.193,0.133,2.248,0.349,3.165,0.644
					c1.07-1.509,2.461-2.264,4.175-2.264c2.109,0,3.439,1.347,3.99,4.042c0.489,2.398,0.734,5.346,0.734,8.839
					c0,1.214-0.337,2.28-1.009,3.198C390.043,95.092,388.866,95.668,387.338,95.668z"/>
				<path fill="#0068FF" d="M435.495,148.435c-0.581,0-1.636-0.651-3.165-1.955c-1.376-1.213-2.401-2.293-3.073-3.24
					c-2.935,1.539-5.52,2.701-7.751,3.485c-2.232,0.783-4.098,1.178-5.595,1.178c-7.155,0-12.368-1.953-15.64-5.862
					c-3.089-3.672-4.632-9.3-4.632-16.879c0-7.165,2.545-13.296,7.637-18.389c5.09-5.092,11.167-7.639,18.23-7.639
					c2.66,0,5.642,0.667,8.943,1.999c4.158,1.657,6.237,3.658,6.237,5.995c0,0.8-0.306,1.511-0.917,2.133
					c-0.306,1.125-0.543,2.976-0.71,5.552c-0.169,2.575-0.269,5.878-0.298,9.905c-0.032,3.672,0.229,6.573,0.779,8.706
					c0.305,1.303,1.268,3.908,2.89,7.817c0.213,0.531,0.565,1.317,1.055,2.354l0.275,0.755c0,1.184-0.428,2.162-1.284,2.931
					C437.619,148.051,436.626,148.435,435.495,148.435z M425.956,117.566c0-1.272,0.083-2.657,0.252-4.153
					c0.167-1.495,0.42-3.087,0.757-4.774c-1.132-0.562-2.103-0.978-2.913-1.243c-0.811-0.268-1.461-0.399-1.949-0.399
					c-4.74,0-8.829,1.872-12.269,5.617c-3.439,3.746-5.16,8.062-5.16,12.948c0,4.856,0.886,8.498,2.66,10.926
					c1.773,2.428,4.433,3.642,7.98,3.642c2.935,0,5.427-0.518,7.476-1.553c1.101-0.563,2.645-1.688,4.631-3.376
					C426.443,127.353,425.956,121.474,425.956,117.566z"/>
				<path fill="#0068FF" d="M482.918,148.657c-2.63,0-4.113-1.392-4.448-4.175l-1.284-9.727c-0.429-3.466-0.642-6.708-0.642-9.729
					c0-0.827,0.052-2.234,0.16-4.22c0.107-1.982,0.161-3.39,0.161-4.22c0-6.396-1.224-9.594-3.669-9.594
					c-3.424,0-6.696,1.97-9.815,5.908c-2.813,3.583-5.016,8.113-6.605,13.592c-0.062,1.153-0.199,2.605-0.413,4.351
					c-0.184,1.481-0.275,2.918-0.275,4.309c0,0.888,0.091,2.22,0.275,3.997s0.275,3.108,0.275,3.998
					c0,1.333-0.421,2.413-1.261,3.243c-0.841,0.828-1.92,1.244-3.233,1.244c-1.347,0-2.431-0.416-3.257-1.244
					c-0.825-0.83-1.238-1.91-1.238-3.243c0-0.89-0.1-2.221-0.298-3.998c-0.199-1.776-0.298-3.109-0.298-3.997
					c0-3.049,0.221-7.276,0.666-12.681c0.442-5.404,0.665-9.631,0.665-12.681c0-0.947-0.054-2.354-0.16-4.221
					c-0.108-1.864-0.161-3.271-0.161-4.22c0-1.273,0.436-2.315,1.308-3.131c0.871-0.814,1.949-1.222,3.233-1.222
					c2.812,0,4.357,1.925,4.632,5.773l0.138,5.197c5.136-6.632,10.411-9.949,15.823-9.949c4.892,0,8.301,2.087,10.228,6.262
					c1.314,2.785,2.034,6.899,2.156,12.349v4.486l-0.046,4.131c0,2.457,0.329,5.633,0.987,9.527
					c0.656,3.893,0.986,7.056,0.986,9.483c0,1.302-0.436,2.359-1.307,3.175C485.326,148.25,484.232,148.657,482.918,148.657z"/>
				<path fill="#0068FF" d="M578.223,118.632c-1.896,9.092-5.879,16.353-11.947,21.787c-6.07,5.433-13.231,8.149-21.487,8.149
					c-7.521,0-13.163-2.037-16.924-6.108c-3.761-4.068-5.642-10.177-5.642-18.32c0-7.669,1.872-15.569,5.618-23.697
					c3.744-8.127,8.554-14.693,14.424-19.698c3.914-3.346,8.057-5.019,12.431-5.019c2.78,0,6.45,0.888,11.006,2.666
					c5.564,2.131,8.348,4.485,8.348,7.062c0,1.214-0.459,2.295-1.376,3.242c-0.918,0.948-2.018,1.422-3.302,1.422
					c-0.674,0-1.623-0.369-2.844-1.111c-4.679-2.753-8.623-4.131-11.833-4.131c-2.294,0-4.695,1.154-7.201,3.465
					c-1.255,1.156-3.059,3.257-5.412,6.307c-7.063,9.062-10.595,18.893-10.595,29.493c0,5.567,0.888,9.462,2.66,11.682
					c1.927,2.428,5.473,3.643,10.641,3.643c5.473,0,10.229-1.674,14.264-5.019c4.249-3.554,7.216-8.632,8.897-15.235
					c-8.471,0.415-15.731,1.998-21.785,4.753c-0.704,0.325-1.393,0.487-2.063,0.487c-1.347,0-2.463-0.503-3.349-1.51
					c-0.825-0.916-1.239-1.983-1.239-3.198c0-1.628,0.81-2.932,2.432-3.908c6.604-3.909,17.993-5.863,34.168-5.863
					c1.314,0,2.415,0.431,3.302,1.288c0.888,0.859,1.331,1.939,1.331,3.243C580.746,116.427,579.904,117.803,578.223,118.632z"/>
				<path fill="#0068FF" d="M619.225,148.213c-8.622,0-15.931-2.502-21.923-7.505c-6.36-5.33-9.539-12.2-9.539-20.61
					c0-10.244,3.133-19.557,9.402-27.938c7-9.298,15.73-13.947,26.188-13.947c10.059,0,17.535,2.192,22.428,6.574
					c5.105,4.561,7.658,11.757,7.658,21.586c0,10.246-2.875,19.485-8.622,27.717C638.214,143.506,629.682,148.213,619.225,148.213z
					 M623.353,87.319c-7.491,0-13.835,3.613-19.033,10.837c-4.801,6.633-7.201,13.947-7.201,21.941
					c0,5.715,2.186,10.364,6.559,13.946c4.188,3.376,9.371,5.063,15.548,5.063c7.43,0,13.56-3.626,18.392-10.883
					c4.313-6.483,6.467-13.769,6.467-21.852c0-7.077-1.636-12.051-4.907-14.924C636.057,88.695,630.783,87.319,623.353,87.319z"/>
			</g>
		</g>
	</g>
	<g id="Layer_2_copy">
		<path fill="none" d="M341.879,62.514c0.002-1.321-0.308-1.624-1.673-1.62c-16.563,0.052-33.126,0.033-49.689,0.033
			c2.211,1.112,4.536,1.913,6.164,4.031c2.598,3.376,2.752,7.038,1.225,10.571c-1.491,3.446-4.662,5.679-8.545,5.933
			c-4.642,0.302-9.283-2.536-11.087-7.419c-1.271-3.44-0.298-8.41,4.305-11.064c1.19-0.686,2.38-1.368,3.571-2.052
			c-29.122,0-58.244,0.022-87.365-0.051c-1.87-0.004-2.241,0.355-2.237,2.167c0.073,33.667,0.054,67.334,0.054,101.001
			c1.933-2.379,4.846-3.312,7.213-2.27c2.063,0.907,3.189,2.394,3.181,4.685c-0.008,2.304-1.205,3.758-3.242,4.656
			c-1.905,0.84-4.675,0.377-6.019-0.956c-0.419-0.414-0.758-0.902-1.133-1.356c0,1.233,0.105,2.479-0.029,3.698
			c-0.148,1.335,0.302,1.624,1.667,1.623c47.323-0.039,94.646-0.039,141.968,0c1.365,0.001,1.674-0.298,1.673-1.62
			C341.837,135.842,341.837,99.178,341.879,62.514z M318.781,107.508c-0.35,2.47-1.814,3.617-4.679,3.655
			c-0.637,0.01-1.273,0.001-1.911,0.001c-0.011,0.084-0.022,0.168-0.034,0.251c-4.962-0.661-9.95-1.181-14.875-2.04
			c-1.107-0.194-2.078-0.646-2.955-1.249c-0.932,1.674-2.276,3.102-4.344,4.104c2.067-1.002,3.412-2.43,4.344-4.104
			c-1.215-0.836-2.25-1.964-3.212-3.117c-0.276-0.33-0.429-0.759-0.714-1.08c-2.18-2.462-2.824-2.403-4.264,0.466
			c-1.56,3.104-3.136,6.207-4.57,9.367c-1.592,3.509-1.724,6.961,1.019,10.092c2.09,2.387,4.09,4.856,6.318,7.119
			c0.316,0.32,0.616,0.651,0.917,0.98c1.38-2.082,2.827-4.068,4.533-5.446c-1.707,1.378-3.153,3.364-4.533,5.446
			c2.911,3.209,5.057,6.835,6.747,10.799c2.139,5.017,4.551,9.926,6.741,14.922c1.314,3.001,2.542,6.047,3.596,9.139
			c0.793,2.329-0.445,4.947-2.574,6.166c-1.898,1.087-3.72,0.869-5.833-0.997c-1.147-1.014-2.329-2.188-2.952-3.525
			c-2.702-5.809-4.938-11.83-7.862-17.523c-1.729-3.367-3.768-6.626-6.018-9.713c-1.789,0.697-3.865,0.552-6.425-0.962
			c2.56,1.514,4.634,1.659,6.425,0.962c-0.623-0.856-1.26-1.7-1.914-2.526c-2.49-3.148-5.826-5.656-8.645-8.58
			c-1.369-1.416-2.178-0.805-2.888,0.404c-1.764,3.006-3.48,6.035-5.214,9.057c2.743,1.018,5.594,1.971,7.866,3.857
			c-2.272-1.887-5.124-2.84-7.866-3.857c-0.209,0.366-0.417,0.731-0.627,1.096c0.797,0.599,1.616,1.177,2.487,1.703
			c-0.871-0.526-1.69-1.104-2.487-1.703c-0.48,0.834-0.96,1.667-1.447,2.498c-5.23,8.93-10.424,17.879-15.783,26.737
			c-2.033,3.362-4.483,3.908-7.704,2.251c-3.152-1.621-4.008-4.625-2.261-7.661c4.554-7.918,9.078-15.853,13.608-23.782
			c1.227-2.147,2.461-4.29,3.69-6.437c-1.851-1.074-3.436-2.411-4-4.596c0.564,2.185,2.148,3.521,4,4.596
			c1.71-2.987,3.41-5.98,5.061-8.999c0.688-1.259,1.386-2.828,1.221-4.154c-0.719-5.762,1.836-10.673,3.912-15.723
			c1.084-2.642,2.235-5.26,3.475-7.836c0.553-1.147,0.305-1.728-0.809-2.296c-0.555-0.284-1.169-0.425-1.796-0.452
			c0.026,1.377,0.093,2.767,0.228,4.19c-0.134-1.423-0.201-2.814-0.228-4.19c-2.14-0.085-4.438,1.252-5.113,3.516
			c-0.834,2.799-1.136,5.743-1.785,8.599c-0.929,4.09-2.759,5.844-6.196,5.309c-2.039-0.318-3.521,0.812-4.543,2.311
			c-6.004,8.801-11.282,17.974-15.687,27.646c-3.461,7.605-5.848,15.513-7.89,23.528c-1.806,7.087-2.172,6.103-9.118,5.035
			c-1.901-0.292-2.854-1.4-3.025-3.375c-0.114-1.31-0.526-2.785-1.317-3.816c-2.649-3.463-2.438-7.239-1.292-10.942
			c3.034-9.803,6.316-19.532,9.495-29.29c0.267-0.821,0.539-1.641,0.743-2.478c1.121-4.583,3.29-6.089,7.931-5.454
			c3.324,0.455,6.288,1.69,8.895,3.769c2.605,2.077,3.226,2.026,5.216-0.484c5.228-6.598,7.862-14.199,9.173-22.323
			c0.928-5.75,1.211-8.729,8.936-10.418c1.476-0.324,3-0.434,4.491-0.704c0.423-0.077,0.846-0.153,1.27-0.229
			c0.024-0.968,0.042-1.94,0.042-2.934c0,0.992-0.019,1.966-0.042,2.934c4.125-0.741,8.253-1.465,12.355-2.313
			c5.207-1.073,9.618,0.639,12.932,4.937c2.356,3.056,4.852,6.022,7.454,8.885c0.231,0.254,0.469,0.493,0.712,0.723
			c0.356-1.62,0.814-3.183,1.54-4.588c-0.726,1.406-1.184,2.968-1.54,4.588c3.199,3.031,7.368,3.996,11.771,4.421
			c2.204,0.213,4.425,0.534,6.56,1.088C317.92,103.384,319.093,105.302,318.781,107.508z M339.933,96.309
			c-4.505,3.151-8.999,6.319-13.546,9.41c-0.416,0.283-1.363,0.331-1.755,0.063c-1.838-1.252-3.459-2.83-5.379-3.933
			c-1.134-0.651-0.592-0.769-0.053-1.219c1.3-1.086,2.53-2.256,3.882-3.276c3.003-2.265,6.057-4.467,9.107-6.674
			c0.341-0.247,0.789-0.355,1.049-0.468c1.285,0.774,2.563,1.523,3.819,2.305c0.888,0.552,1.703,1.228,2.63,1.703
			C340.926,94.853,341.115,95.482,339.933,96.309z"/>
		<path fill="#F7DF00" d="M290.517,60.928c2.211,1.112,4.536,1.913,6.164,4.031c2.598,3.376,2.752,7.038,1.225,10.571
			c-1.491,3.446-4.662,5.679-8.545,5.933c-4.642,0.302-9.283-2.536-11.087-7.419c-1.271-3.44-0.298-8.41,4.305-11.064
			c1.19-0.686,2.38-1.368,3.571-2.052C287.605,60.928,289.061,60.928,290.517,60.928z"/>
		<path fill="#F7DF00" d="M196.601,164.045c1.933-2.379,4.846-3.312,7.213-2.27c2.063,0.907,3.189,2.394,3.181,4.685
			c-0.008,2.304-1.205,3.758-3.242,4.656c-1.905,0.84-4.675,0.377-6.019-0.956c-0.419-0.414-0.758-0.902-1.133-1.356
			C196.601,167.218,196.601,165.631,196.601,164.045z"/>
		<path fill="#F7DF00" d="M281.663,141.219c2.25,3.088,4.29,6.346,6.018,9.713c2.924,5.693,5.161,11.715,7.862,17.524
			c0.623,1.337,1.806,2.511,2.953,3.524c2.113,1.866,3.935,2.084,5.833,0.997c2.129-1.219,3.367-3.837,2.575-6.165
			c-1.054-3.093-2.282-6.139-3.597-9.139c-2.189-4.997-4.601-9.905-6.74-14.922c-1.69-3.964-3.837-7.59-6.748-10.799
			C287.277,135.787,284.957,139.937,281.663,141.219z"/>
		<path fill="#F7DF00" d="M250.449,112.241c3.438,0.534,5.267-1.22,6.196-5.309c0.648-2.856,0.95-5.801,1.785-8.6
			c0.674-2.263,2.973-3.601,5.113-3.515c-0.064-3.287,0.104-6.486,0.185-9.801c-0.423,0.077-0.846,0.152-1.27,0.229
			c-1.49,0.271-3.015,0.381-4.491,0.703c-7.724,1.692-8.007,4.67-8.935,10.419c-1.311,8.125-3.946,15.725-9.174,22.324
			c-1.99,2.509-2.611,2.561-5.216,0.483c-2.606-2.079-5.57-3.313-8.894-3.769c-4.642-0.635-6.811,0.87-7.932,5.455
			c-0.204,0.835-0.476,1.656-0.742,2.477c-3.179,9.758-6.462,19.487-9.495,29.289c-1.147,3.705-1.356,7.479,1.292,10.942
			c0.791,1.033,1.203,2.508,1.316,3.818c0.171,1.974,1.125,3.081,3.025,3.374c6.946,1.068,7.312,2.051,9.119-5.037
			c2.042-8.015,4.428-15.922,7.89-23.525c4.403-9.675,9.682-18.848,15.686-27.646C246.929,113.052,248.411,111.923,250.449,112.241z
			"/>
		<path fill="#F7DF00" d="M257.763,137.085c-1.584-1.023-3.55-1.801-5.284-2.809c-1.229,2.146-2.463,4.289-3.689,6.437
			c-4.531,7.93-9.055,15.864-13.608,23.782c-1.747,3.036-0.891,6.04,2.261,7.661c3.22,1.657,5.67,1.111,7.704-2.251
			c5.358-8.858,10.553-17.808,15.783-26.737c0.486-0.831,0.967-1.664,1.447-2.498c-1.21-0.911-2.353-1.885-3.47-2.886
			C258.513,137.566,258.129,137.34,257.763,137.085z"/>
		<path fill="#F5FE00" d="M262.376,140.671c0.21-0.365,0.418-0.73,0.628-1.097c-1.43-0.53-2.826-1.081-4.098-1.789
			C260.023,138.786,261.165,139.761,262.376,140.671z"/>
		<path fill="#FF7900" d="M296.469,96.527c-2.603-2.861-5.098-5.83-7.455-8.884c-3.314-4.299-7.725-6.011-12.932-4.937
			c-4.102,0.847-8.231,1.57-12.355,2.312c-0.082,3.314-0.249,6.513-0.185,9.8c0.626,0.026,1.241,0.167,1.796,0.451
			c1.113,0.568,1.362,1.149,0.808,2.296c-1.24,2.576-2.391,5.196-3.476,7.836c-2.075,5.051-4.63,9.961-3.911,15.723
			c0.165,1.327-0.533,2.896-1.221,4.155c-1.651,3.018-3.351,6.011-5.062,8.997c1.733,1.008,3.699,1.786,5.285,2.81
			c0.365,0.254,0.75,0.481,1.143,0.7c-1.837-1.645-3.609-3.352-5.512-4.932c1.903,1.58,3.675,3.287,5.512,4.932
			c1.272,0.708,2.668,1.259,4.098,1.789c1.733-3.021,3.45-6.05,5.213-9.056c0.71-1.21,1.52-1.821,2.887-0.403
			c2.819,2.922,6.155,5.431,8.646,8.58c0.653,0.826,1.29,1.67,1.913,2.526c3.294-1.283,5.614-5.435,8.156-9.269
			c-0.3-0.33-0.601-0.66-0.917-0.981c-2.228-2.262-4.228-4.731-6.317-7.118c-2.743-3.131-2.61-6.583-1.019-10.092
			c1.435-3.16,3.01-6.262,4.571-9.367c1.44-2.869,2.084-2.928,4.264-0.466c0.285,0.321,0.438,0.749,0.713,1.08
			c0.964,1.152,1.999,2.28,3.213,3.117c1.752-3.145,2.037-7.162,2.854-10.875C296.939,97.019,296.7,96.781,296.469,96.527z"/>
		<path fill="#F7DF00" d="M315.512,102.759c-2.135-0.554-4.356-0.875-6.559-1.087c-4.404-0.426-8.572-1.392-11.771-4.422
			c-0.816,3.713-1.103,7.731-2.854,10.876c0.876,0.604,1.847,1.055,2.955,1.248c4.925,0.86,9.913,1.38,14.875,2.04
			c0.012-0.082,0.023-0.166,0.035-0.25c0.637,0,1.273,0.007,1.911-0.001c2.864-0.038,4.329-1.187,4.679-3.655
			C319.093,105.302,317.92,103.384,315.512,102.759z"/>
		<path fill="#040402" d="M333.239,90.213c1.286,0.774,2.563,1.524,3.819,2.307c0.888,0.552,1.703,1.227,2.63,1.703
			c1.237,0.631,1.426,1.26,0.245,2.087c-4.505,3.151-8.999,6.319-13.546,9.41c-0.416,0.283-1.363,0.331-1.755,0.063
			c-1.838-1.252-3.459-2.83-5.379-3.933c-1.134-0.651-0.592-0.769-0.053-1.219c1.3-1.086,2.53-2.256,3.882-3.276
			c3.003-2.265,6.057-4.467,9.107-6.674C332.531,90.434,332.979,90.326,333.239,90.213z M338.68,95.382
			c-0.362-0.28-0.607-0.492-0.875-0.669c-1.113-0.735-2.308-1.375-3.327-2.218c-0.851-0.705-1.331-0.599-2.191,0.049
			c-1.837,1.386-3.833,2.573-5.768,3.836c-4.451,2.91-4.419,2.865,0.032,6.041c0.996,0.71,1.597,0.683,2.513-0.012
			c2.834-2.158,5.731-4.239,8.606-6.346C337.944,95.863,338.231,95.684,338.68,95.382z"/>
		<path fill="#B9F1FA" d="M338.68,95.382c-0.449,0.302-0.737,0.481-1.009,0.681c-2.875,2.107-5.771,4.188-8.606,6.345
			c-0.916,0.695-1.518,0.724-2.514,0.012c-4.451-3.174-4.483-3.13-0.032-6.039c1.934-1.265,3.93-2.452,5.768-3.838
			c0.86-0.647,1.34-0.753,2.191-0.048c1.019,0.841,2.214,1.481,3.326,2.217C338.073,94.89,338.318,95.102,338.68,95.382z"/>
	</g>
</g>
</svg>
